<?xml version="1.0" encoding="UTF-8"?>
<svg version="1.1" xmlns="http://www.w3.org/2000/svg" width="200" height="200">
<path d="M0 0 C66 0 132 0 200 0 C200 66 200 132 200 200 C134 200 68 200 0 200 C0 134 0 68 0 0 Z " fill="#F25035" transform="translate(0,0)"/>
<path d="M0 0 C1.66557953 -0.01485695 1.66557953 -0.01485695 3.36480713 -0.03001404 C5.18525543 -0.02326157 5.18525543 -0.02326157 7.04248047 -0.01637268 C8.96492584 -0.02666756 8.96492584 -0.02666756 10.9262085 -0.03717041 C14.43859741 -0.05511326 17.95073667 -0.05393159 21.46315765 -0.04822803 C24.39568698 -0.0451382 27.32816821 -0.05122622 30.26069069 -0.05726677 C37.17822901 -0.07131367 44.09564383 -0.069749 51.01318359 -0.05836487 C58.15014894 -0.0468792 65.2867387 -0.06096617 72.42365456 -0.08776134 C78.55201172 -0.10990861 84.6802509 -0.11655808 90.80864525 -0.11068493 C94.46857066 -0.10731228 98.12825521 -0.10975072 101.78814697 -0.12693596 C105.86795904 -0.14525706 109.94703862 -0.13122827 114.02685547 -0.11402893 C115.24048767 -0.1236969 116.45411987 -0.13336487 117.70452881 -0.14332581 C119.37010834 -0.1285746 119.37010834 -0.1285746 121.06933594 -0.11352539 C122.51613235 -0.11321146 122.51613235 -0.11321146 123.99215698 -0.1128912 C127.31920293 0.54213982 128.50233442 1.71242548 130.53466797 4.38768005 C131.03803253 6.3679657 131.03803253 6.3679657 131.04260254 8.48631287 C131.05388184 9.29378967 131.06516113 10.10126648 131.07678223 10.93321228 C131.0686853 11.8102179 131.06058838 12.68722351 131.05224609 13.59080505 C131.05925537 14.52130676 131.06626465 15.45180847 131.07348633 16.4105072 C131.09109258 19.48653499 131.07943403 22.5616429 131.06591797 25.63768005 C131.06861212 27.77472612 131.0724939 29.911771 131.07751465 32.04881287 C131.08341327 36.52777273 131.0748348 41.00641352 131.05615234 45.4853363 C131.03336284 51.22910458 131.04648394 56.97212525 131.0704422 62.71586609 C131.08489018 67.12878562 131.08029873 71.54152766 131.06993103 75.95445251 C131.06726099 78.07237333 131.07054321 80.19031022 131.07984924 82.30821228 C131.08999815 85.267428 131.07453657 88.22542985 131.05224609 91.18455505 C131.06034302 92.06156067 131.06843994 92.93856628 131.07678223 93.84214783 C131.06550293 94.64962463 131.05422363 95.45710144 131.04260254 96.28904724 C131.04109444 96.98810181 131.03958633 97.68715637 131.03803253 98.40739441 C130.28789697 101.35850142 128.92476412 102.5520432 126.53466797 104.38768005 C123.98936367 104.88266468 123.98936367 104.88266468 121.06260681 104.87542725 C119.39485954 104.88584297 119.39485954 104.88584297 117.69342041 104.89646912 C116.47821716 104.88365906 115.26301392 104.870849 114.01098633 104.85765076 C112.72774979 104.85984116 111.44451324 104.86203156 110.12239075 104.86428833 C106.60580216 104.86970649 103.08974065 104.85030027 99.57324672 104.82618737 C95.89378288 104.80489099 92.21432097 104.80548613 88.5348053 104.80349731 C82.35685149 104.7970503 76.17909572 104.77580471 70.0012207 104.74436951 C62.06940145 104.70406297 54.1377112 104.68667918 46.20580196 104.67706013 C39.38818345 104.66876007 32.5705923 104.65152357 25.75299764 104.63202262 C24.28925382 104.6279732 22.82550911 104.62423371 21.36176372 104.62080026 C16.55076908 104.6095136 11.73990018 104.58935158 6.92895508 104.56468201 C5.7117276 104.5619931 4.49450012 104.5593042 3.24038696 104.55653381 C2.13137527 104.54937851 1.02236359 104.54222321 -0.12025452 104.53485107 C-1.08570725 104.53057759 -2.05115999 104.52630411 -3.04586887 104.52190113 C-5.46533203 104.38768005 -5.46533203 104.38768005 -8.46533203 103.38768005 C-9.36323474 100.69397194 -9.59583245 99.12900991 -9.61250305 96.36460876 C-9.61965836 95.54864731 -9.62681366 94.73268585 -9.63418579 93.89199829 C-9.63687469 93.00047562 -9.6395636 92.10895294 -9.64233398 91.19041443 C-9.64890518 90.24869888 -9.65547638 89.30698334 -9.6622467 88.33673096 C-9.68197028 85.21829654 -9.6936375 82.09991016 -9.70361328 78.98143005 C-9.70768881 77.91776718 -9.71176434 76.85410431 -9.71596336 75.75820923 C-9.73681564 70.13323663 -9.75112354 64.50828841 -9.76049805 58.88328552 C-9.77158752 53.06212768 -9.8060191 47.24134946 -9.84566975 41.42032623 C-9.87175164 36.95259365 -9.88018215 32.48495291 -9.88377953 28.01715088 C-9.88866385 25.87046736 -9.90032987 23.72378842 -9.91881752 21.57717896 C-9.94303967 18.57945638 -9.94227549 15.58273514 -9.93530273 12.58494568 C-9.94811279 11.693423 -9.96092285 10.80190033 -9.97412109 9.88336182 C-9.96717728 9.06740036 -9.96023346 8.2514389 -9.95307922 7.41075134 C-9.95546758 6.70210182 -9.95785593 5.9934523 -9.96031666 5.26332855 C-9.46533203 3.38768005 -9.46533203 3.38768005 -7.77643108 1.6604681 C-4.97513369 0.11771387 -3.19038485 0.00803738 0 0 Z " fill="#E6E8EC" transform="translate(39.46533203125,47.61231994628906)"/>
<path d="M0 0 C45.54 0 91.08 0 138 0 C138 18.48 138 36.96 138 56 C137.67 55.34 137.34 54.68 137 54 C136.34 54 135.68 54 135 54 C135 53.34 135 52.68 135 52 C134.01 51.67 133.02 51.34 132 51 C129.3125 48.5625 129.3125 48.5625 127 46 C127 45.34 127 44.68 127 44 C125.515 43.505 125.515 43.505 124 43 C123.67 42.01 123.34 41.02 123 40 C120.41864729 38.45511984 120.41864729 38.45511984 117.21484375 37.08203125 C116.04501953 36.55029297 114.87519531 36.01855469 113.66992188 35.47070312 C112.42588205 34.91774192 111.18174006 34.3650105 109.9375 33.8125 C108.68901849 33.24900886 107.44096558 32.68456709 106.19335938 32.11914062 C103.13300351 30.73666326 100.06856979 29.36412478 97 28 C97 26.68 97 25.36 97 24 C95.4840625 23.9690625 95.4840625 23.9690625 93.9375 23.9375 C89.49603706 23.33926214 87.2768029 20.84085404 84.28515625 17.69140625 C83 16 83 16 83 14 C79.7 14 76.4 14 73 14 C72.9071875 15.546875 72.9071875 15.546875 72.8125 17.125 C72.02995557 23.69363054 69.33822885 29.85675667 67 36 C66.67 35.34 66.34 34.68 66 34 C65.01 34 64.02 34 63 34 C61.17578125 32.25 61.17578125 32.25 59.3125 30 C58.68988281 29.2575 58.06726563 28.515 57.42578125 27.75 C56.95527344 27.1725 56.48476562 26.595 56 26 C55.01 26.99 54.02 27.98 53 29 C53 26.69 53 24.38 53 22 C52.17757812 22.45890625 51.35515625 22.9178125 50.5078125 23.390625 C44.61743767 26.62829061 38.79232391 29.64797623 32.4921875 32.0234375 C28.66473232 33.52322401 24.9669355 35.29400201 21.25 37.046875 C19 38 19 38 17 38 C17.33 41.63 17.66 45.26 18 49 C18.928125 49.28875 19.85625 49.5775 20.8125 49.875 C24 51 24 51 27 53 C27 53.99 27 54.98 27 56 C28.32 56.66 29.64 57.32 31 58 C31 58.66 31 59.32 31 60 C33.8424854 61.57273568 33.8424854 61.57273568 37 62 C37.495 61.01 37.495 61.01 38 60 C38.99 60.33 39.98 60.66 41 61 C41.495 60.01 41.495 60.01 42 59 C42.99 59.495 42.99 59.495 44 60 C44 60.66 44 61.32 44 62 C47.48722633 62.09963504 50.62286946 61.91273798 54 61 C54.66 60.34 55.32 59.68 56 59 C58.67927341 63.01891012 58.15601248 65.24161923 58 70 C57.34 70 56.68 70 56 70 C56.495 74.455 56.495 74.455 57 79 C55.68 79 54.36 79 53 79 C52.94729537 80.36893239 52.94729537 80.36893239 54 83 C54.99 83.495 54.99 83.495 56 84 C48.50710035 84.1265644 41.01447527 84.21425223 33.52075195 84.2746582 C30.97051696 84.29983408 28.42035434 84.33397705 25.87036133 84.37719727 C22.20896576 84.43771032 18.54852232 84.46617964 14.88671875 84.48828125 C13.7428923 84.51408768 12.59906586 84.5398941 11.420578 84.56648254 C9.82926811 84.56704903 9.82926811 84.56704903 8.20581055 84.56762695 C7.27093307 84.57873001 6.3360556 84.58983307 5.37284851 84.60127258 C3 84 3 84 1.19592285 81.95324707 C-0.28398498 78.29871913 -0.39853154 75.05747154 -0.34057617 71.18041992 C-0.34093778 70.39675458 -0.34129938 69.61308924 -0.34167194 68.80567646 C-0.33944082 66.28034325 -0.3166328 63.75568242 -0.29296875 61.23046875 C-0.2885554 59.66687337 -0.2854964 58.10327356 -0.28381348 56.53967285 C-0.26811381 50.75554744 -0.22622996 44.97151705 -0.1875 39.1875 C-0.0946875 19.7896875 -0.0946875 19.7896875 0 0 Z " fill="#FBFCFC" transform="translate(31,66)"/>
<path d="M0 0 C2.33333333 2.33333333 4.66666667 4.66666667 7 7 C7.33 6.01 7.66 5.02 8 4 C8.99 3.67 9.98 3.34 11 3 C9.74730853 15.52691471 0.39488159 24.61015543 -8.80859375 32.3671875 C-11.48004823 34.3601158 -14.19049295 36.20745536 -17 38 C-18.43472656 38.92232422 -18.43472656 38.92232422 -19.8984375 39.86328125 C-29.93067874 46.01164957 -41.99447261 52 -54 52 C-54 52.66 -54 53.32 -54 54 C-63.57 54 -73.14 54 -83 54 C-82.67 53.01 -82.34 52.02 -82 51 C-82.99 51.33 -83.98 51.66 -85 52 C-91.71851378 51.51432431 -96.35222632 49.89239335 -101 45 C-101 44.34 -101 43.68 -101 43 C-101.66 43 -102.32 43 -103 43 C-103 42.34 -103 41.68 -103 41 C-103.66 41 -104.32 41 -105 41 C-107.125 39.125 -107.125 39.125 -109 37 C-109 36.34 -109 35.68 -109 35 C-109.66 35 -110.32 35 -111 35 C-111 34.34 -111 33.68 -111 33 C-111.66 33 -112.32 33 -113 33 C-115.125 31.125 -115.125 31.125 -117 29 C-117 28.34 -117 27.68 -117 27 C-117.66 27 -118.32 27 -119 27 C-119 26.34 -119 25.68 -119 25 C-119.66 25 -120.32 25 -121 25 C-123.125 23.125 -123.125 23.125 -125 21 C-125 20.34 -125 19.68 -125 19 C-125.66 19 -126.32 19 -127 19 C-127 18.34 -127 17.68 -127 17 C-127.66 17 -128.32 17 -129 17 C-131.125 15.125 -131.125 15.125 -133 13 C-133 12.34 -133 11.68 -133 11 C-133.66 11 -134.32 11 -135 11 C-135 10.34 -135 9.68 -135 9 C-135.66 9 -136.32 9 -137 9 C-137 8.34 -137 7.68 -137 7 C-70.175 6.505 -70.175 6.505 -2 6 C-1.34 4.02 -0.68 2.04 0 0 Z " fill="#DC2C24" transform="translate(172,146)"/>
<path d="M0 0 C0.93730957 1.1907312 0.93730957 1.1907312 1.89355469 2.40551758 C3.61324319 4.52363646 5.10464738 6.05681531 7.25 7.6875 C8.61125 8.8321875 8.61125 8.8321875 10 10 C10 10.66 10 11.32 10 12 C10.66 12 11.32 12 12 12 C13.296875 13.35546875 13.296875 13.35546875 14.75 15.1875 C16.76302239 17.65937308 18.64208771 19.55329656 21.25 21.375 C24.54488207 24.5201147 24.91846297 26.52292404 25.48046875 30.9140625 C25.81358565 33.08869331 25.81358565 33.08869331 27.50992298 34.3420763 C29.47079301 36.52382453 29.37051877 37.70891388 29.36076355 40.61271667 C29.36488754 41.55922592 29.36901154 42.50573517 29.3732605 43.48092651 C29.36247467 44.5174234 29.35168884 45.55392029 29.34057617 46.62182617 C29.34101425 47.71466415 29.34145233 48.80750214 29.34190369 49.93345642 C29.33981005 53.55347424 29.31645131 57.17303162 29.29296875 60.79296875 C29.28737486 63.29974616 29.28310378 65.80652685 29.28010559 68.31330872 C29.26981311 74.24191657 29.2461577 80.17037615 29.21605712 86.09890777 C29.17336187 94.69454268 29.15763221 103.29023391 29.13863373 111.88594818 C29.10952292 123.92410278 29.05204656 135.96182423 29 148 C1.94 148 -25.12 148 -53 148 C-53 147.34 -53 146.68 -53 146 C-51.329375 145.5978125 -51.329375 145.5978125 -49.625 145.1875 C-30.18773707 140.28956719 -11.45990977 131.31775648 2 116 C2.70189453 115.24976563 2.70189453 115.24976563 3.41796875 114.484375 C7.72685032 109.68268879 10.03791682 104.34974899 11 98 C10.01 98.99 9.02 99.98 8 101 C5.5625 100.1875 5.5625 100.1875 3 99 C2.67 98.01 2.34 97.02 2 96 C1.16061638 97.21993904 1.16061638 97.21993904 0.30427551 98.46452332 C-3.29022598 102.01186477 -7.31282814 101.5929376 -12.12591553 101.62210083 C-13.36093811 101.60412445 -14.59596069 101.58614807 -15.8684082 101.56762695 C-17.82997108 101.56872215 -17.82997108 101.56872215 -19.8311615 101.56983948 C-23.40960886 101.57127227 -26.98721579 101.54190614 -30.56546807 101.50696969 C-34.3076959 101.47568262 -38.04994367 101.47277363 -41.7922821 101.46684265 C-48.87549459 101.451311 -55.95832055 101.41029211 -63.04136294 101.3600952 C-71.106567 101.3041803 -79.17178966 101.2767099 -87.23713934 101.25161803 C-103.82498572 101.19937534 -120.41244351 101.11144672 -137 101 C-137 100.67 -137 100.34 -137 100 C-136.32247272 99.99761165 -135.64494543 99.99522329 -134.94688702 99.99276257 C-118.47229775 99.93366429 -101.99787429 99.85814768 -85.52344799 99.76428509 C-77.55657968 99.71929133 -69.58975642 99.67988503 -61.62280273 99.65356445 C-54.67998872 99.63061324 -47.73731688 99.59724772 -40.79461557 99.55129844 C-37.11740613 99.52732712 -33.44033783 99.50862409 -29.76305199 99.50238609 C-25.66108439 99.49523277 -21.55960904 99.4648323 -17.45776367 99.43237305 C-15.62249619 99.43452568 -15.62249619 99.43452568 -13.75015259 99.4367218 C-12.0779641 99.41791458 -12.0779641 99.41791458 -10.37199402 99.39872742 C-8.916022 99.39181397 -8.916022 99.39181397 -7.43063641 99.38476086 C-4.58099959 98.93367377 -3.73114176 98.25796915 -2 96 C-0.32013774 92.64027548 -0.81908473 88.84096603 -0.79467773 85.14404297 C-0.78477814 84.22691528 -0.77487854 83.3097876 -0.76467896 82.36486816 C-0.73301285 79.32400115 -0.70828634 76.28311849 -0.68359375 73.2421875 C-0.66302864 71.13753852 -0.64203229 69.03289371 -0.62062073 66.92825317 C-0.56535435 61.38148369 -0.51596522 55.83467666 -0.46777344 50.2878418 C-0.41759172 44.63066251 -0.3618883 38.97353793 -0.30664062 33.31640625 C-0.19900321 22.21098421 -0.09757066 11.10551472 0 0 Z " fill="#DB2C24" transform="translate(171,52)"/>
<path d="M0 0 C1.66557953 -0.01485695 1.66557953 -0.01485695 3.36480713 -0.03001404 C5.18525543 -0.02326157 5.18525543 -0.02326157 7.04248047 -0.01637268 C8.96492584 -0.02666756 8.96492584 -0.02666756 10.9262085 -0.03717041 C14.43859741 -0.05511326 17.95073667 -0.05393159 21.46315765 -0.04822803 C24.39568698 -0.0451382 27.32816821 -0.05122622 30.26069069 -0.05726677 C37.17822901 -0.07131367 44.09564383 -0.069749 51.01318359 -0.05836487 C58.15014894 -0.0468792 65.2867387 -0.06096617 72.42365456 -0.08776134 C78.55201172 -0.10990861 84.6802509 -0.11655808 90.80864525 -0.11068493 C94.46857066 -0.10731228 98.12825521 -0.10975072 101.78814697 -0.12693596 C105.86795904 -0.14525706 109.94703862 -0.13122827 114.02685547 -0.11402893 C115.24048767 -0.1236969 116.45411987 -0.13336487 117.70452881 -0.14332581 C119.37010834 -0.1285746 119.37010834 -0.1285746 121.06933594 -0.11352539 C122.51613235 -0.11321146 122.51613235 -0.11321146 123.99215698 -0.1128912 C127.31920293 0.54213982 128.50233442 1.71242548 130.53466797 4.38768005 C131.03803253 6.3679657 131.03803253 6.3679657 131.04260254 8.48631287 C131.05388184 9.29378967 131.06516113 10.10126648 131.07678223 10.93321228 C131.0686853 11.8102179 131.06058838 12.68722351 131.05224609 13.59080505 C131.05925537 14.52130676 131.06626465 15.45180847 131.07348633 16.4105072 C131.09109258 19.48653499 131.07943403 22.5616429 131.06591797 25.63768005 C131.06861212 27.77472612 131.0724939 29.911771 131.07751465 32.04881287 C131.08341327 36.52777273 131.0748348 41.00641352 131.05615234 45.4853363 C131.03336284 51.22910458 131.04648394 56.97212525 131.0704422 62.71586609 C131.08489018 67.12878562 131.08029873 71.54152766 131.06993103 75.95445251 C131.06726099 78.07237333 131.07054321 80.19031022 131.07984924 82.30821228 C131.08999815 85.267428 131.07453657 88.22542985 131.05224609 91.18455505 C131.06034302 92.06156067 131.06843994 92.93856628 131.07678223 93.84214783 C131.06550293 94.64962463 131.05422363 95.45710144 131.04260254 96.28904724 C131.04109444 96.98810181 131.03958633 97.68715637 131.03803253 98.40739441 C130.28789697 101.35850142 128.92476412 102.5520432 126.53466797 104.38768005 C123.98936367 104.88266468 123.98936367 104.88266468 121.06260681 104.87542725 C119.39485954 104.88584297 119.39485954 104.88584297 117.69342041 104.89646912 C116.47821716 104.88365906 115.26301392 104.870849 114.01098633 104.85765076 C112.72774979 104.85984116 111.44451324 104.86203156 110.12239075 104.86428833 C106.60580216 104.86970649 103.08974065 104.85030027 99.57324672 104.82618737 C95.89378288 104.80489099 92.21432097 104.80548613 88.5348053 104.80349731 C82.35685149 104.7970503 76.17909572 104.77580471 70.0012207 104.74436951 C62.06940145 104.70406297 54.1377112 104.68667918 46.20580196 104.67706013 C39.38818345 104.66876007 32.5705923 104.65152357 25.75299764 104.63202262 C24.28925382 104.6279732 22.82550911 104.62423371 21.36176372 104.62080026 C16.55076908 104.6095136 11.73990018 104.58935158 6.92895508 104.56468201 C5.7117276 104.5619931 4.49450012 104.5593042 3.24038696 104.55653381 C2.13137527 104.54937851 1.02236359 104.54222321 -0.12025452 104.53485107 C-1.08570725 104.53057759 -2.05115999 104.52630411 -3.04586887 104.52190113 C-5.46533203 104.38768005 -5.46533203 104.38768005 -8.46533203 103.38768005 C-9.36323474 100.69397194 -9.59583245 99.12900991 -9.61250305 96.36460876 C-9.61965836 95.54864731 -9.62681366 94.73268585 -9.63418579 93.89199829 C-9.63687469 93.00047562 -9.6395636 92.10895294 -9.64233398 91.19041443 C-9.64890518 90.24869888 -9.65547638 89.30698334 -9.6622467 88.33673096 C-9.68197028 85.21829654 -9.6936375 82.09991016 -9.70361328 78.98143005 C-9.70768881 77.91776718 -9.71176434 76.85410431 -9.71596336 75.75820923 C-9.73681564 70.13323663 -9.75112354 64.50828841 -9.76049805 58.88328552 C-9.77158752 53.06212768 -9.8060191 47.24134946 -9.84566975 41.42032623 C-9.87175164 36.95259365 -9.88018215 32.48495291 -9.88377953 28.01715088 C-9.88866385 25.87046736 -9.90032987 23.72378842 -9.91881752 21.57717896 C-9.94303967 18.57945638 -9.94227549 15.58273514 -9.93530273 12.58494568 C-9.94811279 11.693423 -9.96092285 10.80190033 -9.97412109 9.88336182 C-9.96717728 9.06740036 -9.96023346 8.2514389 -9.95307922 7.41075134 C-9.95546758 6.70210182 -9.95785593 5.9934523 -9.96031666 5.26332855 C-9.46533203 3.38768005 -9.46533203 3.38768005 -7.77643108 1.6604681 C-4.97513369 0.11771387 -3.19038485 0.00803738 0 0 Z M-8.46533203 18.38768005 C-8.52720703 31.31955505 -8.58908203 44.25143005 -8.65283203 57.57518005 C-8.68014404 61.6540155 -8.70745605 65.73285095 -8.7355957 69.93528748 C-8.74563083 73.60091021 -8.74563083 73.60091021 -8.75166321 77.26654053 C-8.75626109 78.89551249 -8.76679406 80.52447442 -8.78205872 82.15338135 C-8.80405798 84.62513385 -8.80704878 87.09626405 -8.8059082 89.56809998 C-8.81670253 90.29021007 -8.82749685 91.01232016 -8.83861828 91.75631237 C-8.81180759 96.10451019 -8.30861458 99.02543274 -5.46533203 102.38768005 C-3.56976482 103.11040224 -3.56976482 103.11040224 -1.41796875 102.97117615 C-0.59004318 102.9739859 0.23788239 102.97679565 1.09089661 102.97969055 C2.00304428 102.95706146 2.91519196 102.93443237 3.85498047 102.91111755 C4.82992966 102.90677704 5.80487885 102.90243652 6.80937195 102.89796448 C10.09349297 102.87695884 13.3759912 102.81980025 16.65966797 102.76268005 C18.97044003 102.74043316 21.28123328 102.72030114 23.59204102 102.70213318 C29.39481104 102.64984479 35.196951 102.57229437 40.99925709 102.48404312 C46.39816731 102.40254157 51.7971562 102.33257238 57.19628906 102.26756287 C58.43520338 102.25260867 58.43520338 102.25260867 59.69914627 102.23735237 C61.38530724 102.21700723 63.07146828 102.19666794 64.75762939 102.17633438 C83.35054919 101.95046024 101.94268295 101.67998063 120.53466797 101.38768005 C120.53466797 99.73768005 120.53466797 98.08768005 120.53466797 96.38768005 C121.19466797 96.38768005 121.85466797 96.38768005 122.53466797 96.38768005 C122.53466797 98.03768005 122.53466797 99.68768005 122.53466797 101.38768005 C124.18466797 101.38768005 125.83466797 101.38768005 127.53466797 101.38768005 C129.9587681 97.65401203 129.80431745 93.97752568 129.76171875 89.68162537 C129.76208035 88.50630816 129.76208035 88.50630816 129.76244926 87.30724716 C129.76095919 84.77665004 129.74574057 82.24634932 129.72998047 79.71580505 C129.72703908 78.15119061 129.72499923 76.5865742 129.72387695 75.0219574 C129.71340069 69.22716823 129.68547821 63.43242121 129.65966797 57.63768005 C129.61841797 44.68518005 129.57716797 31.73268005 129.53466797 18.38768005 C83.99466797 18.38768005 38.45466797 18.38768005 -8.46533203 18.38768005 Z " fill="#E6E3E6" transform="translate(39.46533203125,47.61231994628906)"/>
<path d="M0 0 C0.66 0 1.32 0 2 0 C2.23074219 1.01578125 2.46148437 2.0315625 2.69921875 3.078125 C4.73301847 11.7700209 7.15155021 19.90459231 11 28 C11.39445313 28.86496094 11.78890625 29.72992188 12.1953125 30.62109375 C22.75528806 51.89912835 42.07430133 68.32271015 64 77 C69.91704873 78.96668772 75.94803307 80.51102401 82 82 C82 82.66 82 83.32 82 84 C54.94 84 27.88 84 0 84 C0 56.28 0 28.56 0 0 Z " fill="#FCFDFC" transform="translate(0,116)"/>
<path d="M0 0 C27.39 0 54.78 0 83 0 C83 27.39 83 54.78 83 83 C82.34 83 81.68 83 81 83 C80.5978125 81.22109375 80.5978125 81.22109375 80.1875 79.40625 C73.82516387 52.58518359 59.55959916 30.85318925 36.1640625 15.8203125 C34.46964515 14.82019299 32.74445815 13.90999569 31 13 C30.19949219 12.53980469 29.39898437 12.07960938 28.57421875 11.60546875 C19.50414759 6.65017399 9.98445878 4.36034277 0 2 C0 1.34 0 0.68 0 0 Z " fill="#FDFDFC" transform="translate(117,0)"/>
<path d="M0 0 C0.66 0 1.32 0 2 0 C2 27.72 2 55.44 2 84 C-25.06 84 -52.12 84 -80 84 C-80 83.34 -80 82.68 -80 82 C-78.329375 81.5978125 -78.329375 81.5978125 -76.625 81.1875 C-50.23649751 74.53794689 -31.03096731 60.85792301 -15 39 C-14.49210937 38.31035156 -13.98421875 37.62070313 -13.4609375 36.91015625 C-6.48576623 26.62740377 -1.31265306 12.3389388 0 0 Z " fill="#FCFDFC" transform="translate(198,116)"/>
<path d="M0 0 C27.06 0 54.12 0 82 0 C82 0.66 82 1.32 82 2 C80.741875 2.3403125 79.48375 2.680625 78.1875 3.03125 C57.03872906 8.93637235 40.13327118 17.78898844 25 34 C24.278125 34.66 23.55625 35.32 22.8125 36 C20.84095115 38.17550218 19.50303824 40.48143635 18.12109375 43.0625 C17 45 17 45 15.66015625 46.75 C7.93544509 56.91301521 4.53704634 70.66299033 2 83 C1.34 83 0.68 83 0 83 C0 55.61 0 28.22 0 0 Z " fill="#FCFCFB" transform="translate(0,0)"/>
<path d="M0 0 C2.64 0 5.28 0 8 0 C4.96817526 13.2043946 0.98443308 26.07843388 -3.07080078 38.99902344 C-4.21874603 42.70647037 -5.30976524 46.42942576 -6.38452148 50.15869141 C-7 52 -7 52 -8 53 C-10.33297433 53.04092937 -12.66705225 53.04241723 -15 53 C-15 51.35 -15 49.7 -15 48 C-15.99 47.505 -15.99 47.505 -17 47 C-17.99 47.33 -18.98 47.66 -20 48 C-23.3370079 48.85564305 -25.74077523 49.28040973 -29 48 C-29.33 47.34 -29.66 46.68 -30 46 C-30.66 47.32 -31.32 48.64 -32 50 C-32.33 49.01 -32.66 48.02 -33 47 C-33.66 46.67 -34.32 46.34 -35 46 C-35.66 47.32 -36.32 48.64 -37 50 C-40.20201791 47.50954163 -43.33002598 45.06552572 -46 42 C-46 41.01 -46 40.02 -46 39 C-48.20519723 37.8565644 -50.35544665 36.86774078 -52.6875 36 C-55 35 -55 35 -56 33 C-56.06950541 31.45976004 -56.08452357 29.91665012 -56.0625 28.375 C-56.05347656 27.55773437 -56.04445312 26.74046875 -56.03515625 25.8984375 C-56.02355469 25.27195312 -56.01195312 24.64546875 -56 24 C-52.9802079 22.56030542 -49.95897965 21.12364913 -46.9375 19.6875 C-46.08994141 19.28337891 -45.24238281 18.87925781 -44.36914062 18.46289062 C-40.65211364 16.69766159 -36.9379533 14.94851209 -33.1484375 13.34375 C-29.90820197 11.96082069 -26.81605723 10.40449368 -23.69921875 8.76953125 C-22 8 -22 8 -20 8 C-19.505 10.97 -19.505 10.97 -19 14 C-18.01 13.01 -17.02 12.02 -16 11 C-15.7525 11.598125 -15.505 12.19625 -15.25 12.8125 C-13.83555909 15.28777159 -12.27139812 16.33430804 -10 18 C-10 18.66 -10 19.32 -10 20 C-8.68 20 -7.36 20 -6 20 C-5.18372554 17.60539412 -4.37188355 15.20943474 -3.5625 12.8125 C-3.33240234 12.13896484 -3.10230469 11.46542969 -2.86523438 10.77148438 C-1.66475915 7.20485509 -0.62722505 3.7128839 0 0 Z " fill="#E3E8EF" transform="translate(104,80)"/>
<path d="M0 0 C11.97803559 -0.0231219 23.95606591 -0.0409143 35.93411922 -0.05181217 C41.49539411 -0.05704134 47.05665379 -0.06413958 52.61791992 -0.07543945 C57.98007419 -0.08626715 63.34221378 -0.09227658 68.70437813 -0.09487724 C70.75500278 -0.09673171 72.8056266 -0.10035272 74.85624504 -0.10573006 C77.71790203 -0.11293893 80.57949757 -0.11399101 83.44116211 -0.11352539 C84.72617111 -0.1189183 84.72617111 -0.1189183 86.03713989 -0.12442017 C91.88594784 -0.11405216 91.88594784 -0.11405216 93 1 C93.04063832 2.66617115 93.042721 4.33388095 93 6 C92.01 6.33 91.02 6.66 90 7 C89.505 6.01 89.505 6.01 89 5 C88.01 5 87.02 5 86 5 C85.67 7.31 85.34 9.62 85 12 C84.505 11.01 84.505 11.01 84 10 C82.51328545 10.00333092 82.51328545 10.00333092 80.99653625 10.00672913 C71.65334389 10.02700586 62.31015599 10.04199401 52.9669466 10.05181217 C48.16358332 10.05702947 43.36023782 10.06410621 38.55688477 10.07543945 C33.92090365 10.08630926 29.28493963 10.09228554 24.64894676 10.09487724 C22.88073648 10.0967241 21.11252712 10.10033053 19.34432411 10.10573006 C16.86665454 10.11299478 14.38905547 10.11398864 11.91137695 10.11352539 C11.18129425 10.11712067 10.45121155 10.12071594 9.69900513 10.12442017 C6.00509493 10.11695275 2.591833 9.88277081 -1 9 C-1.125 2.25 -1.125 2.25 0 0 Z " fill="#DAE5E8" transform="translate(75,52)"/>
<path d="M0 0 C1.11341766 -0.00137466 2.22683533 -0.00274933 3.37399292 -0.00416565 C4.60109985 -0.00057037 5.82820679 0.0030249 7.09249878 0.00672913 C9.02414383 0.00651009 9.02414383 0.00651009 10.99481201 0.00628662 C14.53178473 0.00599902 18.06872371 0.01188969 21.60568857 0.01886058 C25.29992916 0.02510036 28.99417048 0.02569841 32.68841553 0.02688599 C39.68655154 0.02999745 46.68467198 0.03820837 53.68280113 0.04823548 C61.64883648 0.05940233 69.61487256 0.06490851 77.58091378 0.06993091 C93.97003848 0.08039112 110.3591475 0.09798701 126.7482605 0.12025452 C126.7482605 0.45025452 126.7482605 0.78025452 126.7482605 1.12025452 C95.0682605 1.45025452 63.3882605 1.78025452 30.7482605 2.12025452 C31.7382605 3.11025452 32.7282605 4.10025452 33.7482605 5.12025452 C34.13904606 7.8453325 33.88443003 10.35147408 33.7482605 13.12025452 C29.57912294 14.3185102 25.4227357 14.47296931 21.11154175 14.74134827 C20.33165894 14.86638733 19.55177612 14.99142639 18.7482605 15.12025452 C18.4182605 15.78025452 18.0882605 16.44025452 17.7482605 17.12025452 C16.0982605 17.12025452 14.4482605 17.12025452 12.7482605 17.12025452 C12.7482605 16.46025452 12.7482605 15.80025452 12.7482605 15.12025452 C10.7682605 14.46025452 8.7882605 13.80025452 6.7482605 13.12025452 C6.7482605 11.47025452 6.7482605 9.82025452 6.7482605 8.12025452 C7.7382605 7.79025452 8.7282605 7.46025452 9.7482605 7.12025452 C10.95708146 5.12008985 10.95708146 5.12008985 11.7482605 3.12025452 C15.46425241 2.91939009 16.52034495 2.96831082 19.7482605 5.12025452 C19.7482605 4.46025452 19.7482605 3.80025452 19.7482605 3.12025452 C14.1382605 2.79025452 8.5282605 2.46025452 2.7482605 2.12025452 C3.4082605 3.77025452 4.0682605 5.42025452 4.7482605 7.12025452 C5.12956789 9.44622963 5.47286304 11.77937609 5.7482605 14.12025452 C2.7782605 14.78025452 -0.1917395 15.44025452 -3.2517395 16.12025452 C-5.6811911 12.47607712 -5.41353525 10.4078418 -5.2517395 6.12025452 C-6.5717395 5.79025452 -7.8917395 5.46025452 -9.2517395 5.12025452 C-7.0157216 0.16907201 -5.28811574 -0.00501719 0 0 Z " fill="#F5ABA5" transform="translate(39.251739501953125,47.87974548339844)"/>
<path d="M0 0 C3.34550748 3.53519586 3.37023023 6.24722093 3.35644531 11.01586914 C3.35951187 12.0629026 3.35951187 12.0629026 3.36264038 13.13108826 C3.36564251 15.4327129 3.34718978 17.73361704 3.328125 20.03515625 C3.32506636 21.63650841 3.32319104 23.23786323 3.32244873 24.83921814 C3.31784932 28.19247649 3.30343675 31.54549421 3.28125 34.89868164 C3.25294515 39.19847331 3.24203569 43.49807571 3.2375679 47.7979517 C3.23341279 51.10332636 3.22359489 54.40866274 3.21169281 57.71401787 C3.20599332 59.29966361 3.20123356 60.88531302 3.19742584 62.47096443 C3.19055667 64.68521728 3.17692168 66.89932042 3.16113281 69.11352539 C3.15430481 70.373871 3.14747681 71.63421661 3.14044189 72.93275452 C3 76 3 76 2 79 C2 79.99 2 80.98 2 82 C2.66 82 3.32 82 4 82 C3.88140625 82.86882812 3.7628125 83.73765625 3.640625 84.6328125 C2.48093505 91.99736395 2.48093505 91.99736395 4.9375 98.6875 C5.9584375 99.8321875 5.9584375 99.8321875 7 101 C7 101.66 7 102.32 7 103 C9.31 103 11.62 103 14 103 C14 103.99 14 104.98 14 106 C14.99 106.495 14.99 106.495 16 107 C16 107.66 16 108.32 16 109 C17.98139735 110.36757038 20.05472212 111.50345036 22.15234375 112.68359375 C24 114 24 114 25 117 C26.32 117 27.64 117 29 117 C29 117.66 29 118.32 29 119 C29.66 119 30.32 119 31 119 C31 119.66 31 120.32 31 121 C11.47738122 115.32017378 -2.8643473 95.28699987 -12.44140625 78.46875 C-15.59131835 72.52622926 -17.47124646 66.53759645 -19 60 C-15.5860301 62.98811087 -14.29376151 65.34687761 -13.0625 69.6875 C-11.34602761 75.26090638 -9.05252026 80.04590974 -6 85 C-5.731875 83.88625 -5.46375 82.7725 -5.1875 81.625 C-4 78 -4 78 -1 76 C-0.68356451 73.51935207 -0.56255648 71.28188013 -0.56762695 68.79638672 C-0.5574353 68.0548233 -0.54724365 67.31325989 -0.53674316 66.54922485 C-0.50649501 64.09263674 -0.49732953 61.63643775 -0.48828125 59.1796875 C-0.47144326 57.47859387 -0.45329422 55.77751275 -0.43388367 54.07644653 C-0.38628167 49.59499012 -0.35653852 45.1135844 -0.33044434 40.63195801 C-0.30069005 36.06052636 -0.25414223 31.4892696 -0.20898438 26.91796875 C-0.12283537 17.94540379 -0.05554188 8.97280295 0 0 Z " fill="#F2503C" transform="translate(23,67)"/>
<path d="M0 0 C4.55636787 1.4211964 8.84149948 3.21946572 13.1484375 5.2578125 C13.80582916 5.56572723 14.46322083 5.87364197 15.14053345 6.19088745 C17.22016129 7.16582421 19.29759838 8.14532997 21.375 9.125 C22.79282596 9.7906688 24.21079336 10.45603643 25.62890625 11.12109375 C29.08758277 12.74391788 32.5443034 14.37084056 36 16 C36 18.31 36 20.62 36 23 C35.11441406 23.4125 34.22882813 23.825 33.31640625 24.25 C32.72641846 24.52505371 32.13643066 24.80010742 31.52856445 25.08349609 C30.20306074 25.70139513 28.87737306 26.31889968 27.55151367 26.93603516 C23.81308106 28.67846227 20.08163207 30.43419263 16.359375 32.2109375 C15.22133423 32.75234375 15.22133423 32.75234375 14.06030273 33.3046875 C12.58443344 34.0074366 11.10993615 34.71307584 9.63696289 35.421875 C6.4484609 36.93714267 3.44189349 38.22504171 0 39 C0 36.36 0 33.72 0 31 C0.78503906 30.68546875 1.57007812 30.3709375 2.37890625 30.046875 C9.26906397 27.28569117 9.26906397 27.28569117 15.8125 23.8125 C19.25238986 21.85648419 22.18034884 20.93542477 26 20 C19.2914737 15.52764913 11.48273104 12.7196582 3.99609375 9.796875 C2 9 2 9 0 8 C0 5.36 0 2.72 0 0 Z " fill="#628A9B" transform="translate(116,88)"/>
<path d="M0 0 C0 2.31 0 4.62 0 7 C-7.83800852 11.08154361 -15.85546597 14.58492881 -24 18 C-18.72698293 23.27301707 -9.77537353 25.55648085 -2.8984375 28.203125 C-1 29 -1 29 0 30 C0.04092937 32.33297433 0.04241723 34.66705225 0 37 C-3.42211341 36.41087668 -6.35319059 35.54491499 -9.51171875 34.109375 C-10.7661377 33.54271118 -10.7661377 33.54271118 -12.04589844 32.96459961 C-12.91762695 32.56378174 -13.78935547 32.16296387 -14.6875 31.75 C-15.57856445 31.34467041 -16.46962891 30.93934082 -17.38769531 30.52172852 C-23.32281817 27.808607 -29.21776361 25.0280659 -35 22 C-35 19.69 -35 17.38 -35 15 C-31.9802079 13.56030542 -28.95897965 12.12364913 -25.9375 10.6875 C-25.08994141 10.28337891 -24.24238281 9.87925781 -23.36914062 9.46289062 C-19.63003755 7.68717758 -15.89302956 5.92918043 -12.08203125 4.3125 C-8.93396446 3.01814567 -8.93396446 3.01814567 -5.75 1.3125 C-3 0 -3 0 0 0 Z " fill="#5F8998" transform="translate(83,89)"/>
<path d="M0 0 C2.64 0 5.28 0 8 0 C4.96817526 13.2043946 0.98443308 26.07843388 -3.07080078 38.99902344 C-4.21874603 42.70647037 -5.30976524 46.42942576 -6.38452148 50.15869141 C-7 52 -7 52 -8 53 C-10.33297433 53.04092937 -12.66705225 53.04241723 -15 53 C-12.94707625 44.45728194 -10.59391429 36.03727802 -8.0625 27.625 C-7.35496273 25.25666153 -6.64792656 22.8881733 -5.94140625 20.51953125 C-5.60641113 19.39756348 -5.27141602 18.2755957 -4.92626953 17.11962891 C-3.23597095 11.42678884 -1.60628383 5.71710231 0 0 Z " fill="#5E899A" transform="translate(104,80)"/>
<path d="M0 0 C0.99 0 1.98 0 3 0 C3 0.66 3 1.32 3 2 C30.06 2 57.12 2 85 2 C84.67 3.32 84.34 4.64 84 6 C56.28 6 28.56 6 0 6 C-1 2 -1 2 0 0 Z " fill="#E6E0ED" transform="translate(75,52)"/>
<path d="M0 0 C0.66 0 1.32 0 2 0 C2.09264316 10.75269899 2.16373616 21.50530318 2.20724869 32.25831985 C2.22813162 37.25129534 2.25646222 42.24399797 2.30175781 47.23681641 C2.34519028 52.05436641 2.36913178 56.8716538 2.37950897 61.68938446 C2.38690502 63.52823776 2.40134769 65.36707654 2.42292023 67.20581818 C2.45192002 69.7797817 2.4559575 72.35265745 2.45410156 74.92675781 C2.46848267 75.68848801 2.48286377 76.4502182 2.49768066 77.23503113 C2.47192922 80.53142859 2.35115542 82.54264442 0.3132019 85.19693756 C-2.52946069 87.41269665 -3.92034051 87.49459947 -7.49224854 87.48101807 C-9.16649902 87.48926605 -9.16649902 87.48926605 -10.87457275 87.49768066 C-12.09448914 87.48329956 -13.31440552 87.46891846 -14.57128906 87.45410156 C-15.85934448 87.45468567 -17.1473999 87.45526978 -18.4744873 87.45587158 C-22.00328699 87.45701913 -25.53154268 87.43350403 -29.06021595 87.40557575 C-32.74907993 87.38056847 -36.43795642 87.37822064 -40.12689209 87.37347412 C-47.11090789 87.36104231 -54.0946732 87.32821811 -61.07857871 87.28807616 C-69.03011718 87.24336469 -76.98166761 87.22137302 -84.9333005 87.20129442 C-101.28901363 87.1594855 -117.64447485 87.08912968 -134 87 C-134 86.67 -134 86.34 -134 86 C-101.8763493 85.34420012 -69.75271393 84.83977991 -37.625 84.4375 C-36.29527287 84.4208473 -36.29527287 84.4208473 -34.93868256 84.40385818 C-23.95915357 84.2665996 -12.97959329 84.13201308 -2 84 C0.44561822 80.24742245 0.26939177 76.52235271 0.22705078 72.20214844 C0.22734283 71.42127869 0.22763489 70.64040894 0.22793579 69.83587646 C0.2265448 67.26026212 0.21099452 64.68493868 0.1953125 62.109375 C0.19158155 60.32147378 0.18873496 58.5335705 0.18673706 56.7456665 C0.17910707 52.04384703 0.159464 47.34215144 0.1373291 42.64038086 C0.11685704 37.84100012 0.10773243 33.04159933 0.09765625 28.2421875 C0.07621753 18.82807062 0.0420892 9.41404562 0 0 Z " fill="#EEBAB4" transform="translate(168,65)"/>
<path d="M0 0 C1 1 1 1 1.09765625 2.84765625 C1.06510417 4.8984375 1.03255208 6.94921875 1 9 C-3.16913756 10.19825569 -7.3255248 10.35271479 -11.63671875 10.62109375 C-12.41660156 10.74613281 -13.19648437 10.87117188 -14 11 C-14.33 11.66 -14.66 12.32 -15 13 C-16.65 13 -18.3 13 -20 13 C-20 12.34 -20 11.68 -20 11 C-21.98 10.34 -23.96 9.68 -26 9 C-26 7.35 -26 5.7 -26 4 C-25.01 3.67 -24.02 3.34 -23 3 C-21.79117904 0.99983534 -21.79117904 0.99983534 -21 -1 C-17.28400809 -1.20086443 -16.22791555 -1.1519437 -13 1 C-13 0.34 -13 -0.32 -13 -1 C-7.97559361 -2.00488128 -4.73538389 -2.02945024 0 0 Z " fill="#CFE5C9" transform="translate(72,52)"/>
<path d="M0 0 C0.66 0.33 1.32 0.66 2 1 C1.83775783 1.58172974 1.67551565 2.16345947 1.50835705 2.76281738 C0.70533179 6.2967787 0.85269903 9.86246788 0.85473633 13.46875 C0.85137772 14.32122314 0.8480191 15.17369629 0.84455872 16.05200195 C0.83506483 18.86801615 0.83310655 21.6839708 0.83203125 24.5 C0.82881818 26.45768254 0.82545407 28.41536484 0.82194519 30.37304688 C0.81595826 34.47526608 0.8141049 38.57746423 0.81469727 42.6796875 C0.814799 47.93897969 0.80113311 53.19813722 0.78392506 58.45739746 C0.77281477 62.49968081 0.77077774 66.54193146 0.77130699 70.58422852 C0.77012594 72.52352361 0.76569715 74.46281953 0.75797462 76.40209961 C0.748192 79.11191295 0.75104567 81.82143206 0.75708008 84.53125 C0.75146057 85.33344971 0.74584106 86.13564941 0.74005127 86.9621582 C0.76355867 91.110298 1.0958913 93.19178259 3 97 C44.58 97 86.16 97 129 97 C129 95.35 129 93.7 129 92 C129.66 92 130.32 92 131 92 C131 93.65 131 95.3 131 97 C132.32 97.33 133.64 97.66 135 98 C123.18759965 98.17397605 111.37510051 98.34019658 99.5625 98.5 C98.68486748 98.51187725 97.80723495 98.5237545 96.90300751 98.53599167 C64.59952269 98.97046314 32.30649118 99.1283414 0 99 C-1.33665585 94.99003246 -1.1390557 91.13535036 -1.12939453 86.95458984 C-1.13114685 86.02916885 -1.13289917 85.10374786 -1.13470459 84.15028381 C-1.13911104 81.08714938 -1.13618981 78.02407253 -1.1328125 74.9609375 C-1.13348577 72.83769723 -1.13445599 70.71445704 -1.13571167 68.59121704 C-1.13718691 64.14088202 -1.13503921 59.69056706 -1.13037109 55.24023438 C-1.12466698 49.52216691 -1.12795823 43.80414631 -1.13394356 38.08608055 C-1.13754793 33.70250085 -1.13641128 29.31893236 -1.13381577 24.93535233 C-1.13314651 22.82611714 -1.13397486 20.71688096 -1.13629532 18.60764694 C-1.13882056 15.66727733 -1.13498339 12.72698492 -1.12939453 9.78662109 C-1.13141876 8.90660934 -1.13344299 8.0265976 -1.13552856 7.11991882 C-1.11426383 1.11426383 -1.11426383 1.11426383 0 0 Z " fill="#FAE7E1" transform="translate(31,52)"/>
<path d="M0 0 C0.33 0 0.66 0 1 0 C1.20031504 11.63067675 1.38402223 23.26148628 1.54658794 34.89275551 C1.62259614 40.29374398 1.70430174 45.69452043 1.79907227 51.09521484 C1.89033725 56.30812703 1.96657822 61.52106319 2.03244972 66.73435593 C2.0602002 68.72231605 2.09334447 70.71020851 2.13199425 72.6979866 C2.18524657 75.48437963 2.21923583 78.2703975 2.2487793 81.05712891 C2.27898415 82.28712112 2.27898415 82.28712112 2.30979919 83.54196167 C2.33723564 88.43762799 1.72669636 91.75850679 -1 96 C-3.58439794 97.29219897 -5.4328216 97.12295998 -8.32766724 97.12025452 C-10.02303619 97.12231651 -10.02303619 97.12231651 -11.75265503 97.12442017 C-13.62136765 97.11902725 -13.62136765 97.11902725 -15.52783203 97.11352539 C-16.83510254 97.11367142 -18.14237305 97.11381744 -19.48925781 97.1139679 C-23.07994761 97.1142555 -26.6706042 97.10836466 -30.26128626 97.10139394 C-34.01158131 97.09515433 -37.76187707 97.09455612 -41.51217651 97.09336853 C-48.61656032 97.09025701 -55.72092878 97.08204603 -62.82530582 97.07201904 C-70.91225789 97.06085235 -78.99921067 97.05534605 -87.08616853 97.05032361 C-103.72412134 97.03986327 -120.36205871 97.02226728 -137 97 C-137 96.67 -137 96.34 -137 96 C-136.32247272 95.99761165 -135.64494543 95.99522329 -134.94688702 95.99276257 C-118.47229775 95.93366429 -101.99787429 95.85814768 -85.52344799 95.76428509 C-77.55657968 95.71929133 -69.58975642 95.67988503 -61.62280273 95.65356445 C-54.67998872 95.63061324 -47.73731688 95.59724772 -40.79461557 95.55129844 C-37.11740613 95.52732712 -33.44033783 95.50862409 -29.76305199 95.50238609 C-25.66108439 95.49523277 -21.55960904 95.4648323 -17.45776367 95.43237305 C-15.62249619 95.43452568 -15.62249619 95.43452568 -13.75015259 95.4367218 C-12.0779641 95.41791458 -12.0779641 95.41791458 -10.37199402 95.39872742 C-8.916022 95.39181397 -8.916022 95.39181397 -7.43063641 95.38476086 C-4.58099959 94.93367377 -3.73114176 94.25796915 -2 92 C-0.36459435 88.72918869 -0.81948675 85.10782172 -0.79467773 81.51123047 C-0.78477814 80.63311707 -0.77487854 79.75500366 -0.76467896 78.85028076 C-0.73301726 75.93927738 -0.70828809 73.02825765 -0.68359375 70.1171875 C-0.66302825 68.10221933 -0.64203189 66.08725551 -0.62062073 64.07229614 C-0.56535829 58.76226319 -0.51596743 53.45219103 -0.46777344 48.14208984 C-0.41758885 42.72620138 -0.36188692 37.31037003 -0.30664062 31.89453125 C-0.19900803 21.26306959 -0.0975744 10.6315584 0 0 Z " fill="#B43D35" transform="translate(171,56)"/>
<path d="M0 0 C12.87342086 -0.06939468 25.74679751 -0.1227576 38.62036705 -0.15543652 C44.59756432 -0.17111775 50.57463399 -0.19240083 56.55175781 -0.22631836 C62.31592698 -0.25882417 68.07997312 -0.27683448 73.84422684 -0.28463173 C76.04755211 -0.29019105 78.25087038 -0.30104645 80.45414352 -0.31719017 C83.53126529 -0.33884769 86.60787336 -0.34197182 89.68505859 -0.34057617 C90.60359116 -0.351362 91.52212372 -0.36214783 92.4684906 -0.3732605 C93.30424118 -0.36913651 94.13999176 -0.36501251 95.00106812 -0.36076355 C95.72928457 -0.36352893 96.45750103 -0.36629431 97.20778465 -0.36914349 C99 0 99 0 101 3 C101.1953125 6.13671875 101.1953125 6.13671875 101.125 9.6875 C101.10695313 10.86699219 101.08890625 12.04648437 101.0703125 13.26171875 C101.04710937 14.16535156 101.02390625 15.06898437 101 16 C100.34 16 99.68 16 99 16 C99.01160156 15.30132812 99.02320313 14.60265625 99.03515625 13.8828125 C99.04417969 12.97273438 99.05320312 12.06265625 99.0625 11.125 C99.07410156 10.22007813 99.08570313 9.31515625 99.09765625 8.3828125 C99.16249257 5.9831415 99.16249257 5.9831415 98 4 C93.45941479 2.60963877 88.69230858 2.82682917 83.98706055 2.79467773 C83.08900192 2.78477814 82.1909433 2.77487854 81.26567078 2.76467896 C78.30604665 2.73316637 75.34640648 2.70834708 72.38671875 2.68359375 C70.33119802 2.66301538 68.27568143 2.64201867 66.22016907 2.62062073 C60.81647099 2.56549129 55.4127353 2.5160418 50.00897217 2.46777344 C44.49227562 2.41749171 38.97563352 2.36184049 33.45898438 2.30664062 C22.63936947 2.19917072 11.81970722 2.09770101 1 2 C0.67 1.34 0.34 0.68 0 0 Z " fill="#F8D9D5" transform="translate(69,49)"/>
<path d="M0 0 C-4.26529587 10.12104104 -15.08643993 18.27251078 -24 24 C-24.95777344 24.61617187 -25.91554687 25.23234375 -26.90234375 25.8671875 C-36.93628728 32.01149457 -48.994899 38 -61 38 C-61 38.66 -61 39.32 -61 40 C-62.65 40 -64.3 40 -66 40 C-65.875 38.125 -65.875 38.125 -65 36 C-60.78770349 34.05586315 -56.21265281 33.43534438 -51.6796875 32.57421875 C-47.37289805 31.6513353 -43.19328617 30.33828282 -39 29 C-39 28.34 -39 27.68 -39 27 C-38.01 27 -37.02 27 -36 27 C-34.8509288 25.0745356 -34.8509288 25.0745356 -35 23 C-33.68 22.34 -32.36 21.68 -31 21 C-31 21.66 -31 22.32 -31 23 C-27.04 22.505 -27.04 22.505 -23 22 C-23 21.01 -23 20.02 -23 19 C-21.68 19 -20.36 19 -19 19 C-18.505 17.515 -18.505 17.515 -18 16 C-17.01 16 -16.02 16 -15 16 C-14.95875 15.278125 -14.9175 14.55625 -14.875 13.8125 C-13.84431225 10.4995751 -12.27465452 9.32383892 -9.55859375 7.265625 C-7.34289618 5.46641193 -5.74545416 3.24415534 -4 1 C-2 0 -2 0 0 0 Z " fill="#C34440" transform="translate(179,160)"/>
<path d="M0 0 C6.93 0 13.86 0 21 0 C21 0.66 21 1.32 21 2 C19.741875 2.3403125 18.48375 2.680625 17.1875 3.03125 C-0.16093881 7.87647832 -14.1599396 14.43501802 -28 26 C-28.33 25.01 -28.66 24.02 -29 23 C-24.375 19 -24.375 19 -21 19 C-20.67 18.01 -20.34 17.02 -20 16 C-19.34 16 -18.68 16 -18 16 C-17.67 14.68 -17.34 13.36 -17 12 C-15.741875 11.71125 -14.48375 11.4225 -13.1875 11.125 C-10.1460601 10.42696461 -8.69330122 9.79553415 -6 8 C-5.01 8 -4.02 8 -3 8 C-3.66 6.68 -4.32 5.36 -5 4 C-4.34 3.34 -3.68 2.68 -3 2 C-2.01 2 -1.02 2 0 2 C0 1.34 0 0.68 0 0 Z " fill="#F9FBF7" transform="translate(61,0)"/>
<path d="M0 0 C4.19410502 3.51854448 5.950357 7.6475108 8.0625 12.5625 C8.41248047 13.36518311 8.76246094 14.16786621 9.12304688 14.99487305 C12.31790517 22.47135287 15.23319944 29.76514468 15 38 C15.66 38 16.32 38 17 38 C17 39.65 17 41.3 17 43 C16.67 42.34 16.34 41.68 16 41 C15.01 40.67 14.02 40.34 13 40 C12.375 38.00390625 12.375 38.00390625 12 35.5625 C11.68428381 33.1571954 11.68428381 33.1571954 11 31 C10.01 30.34 9.02 29.68 8 29 C8 28.34 8 27.68 8 27 C7.38125 26.731875 6.7625 26.46375 6.125 26.1875 C4 25 4 25 2 22 C2.66 22 3.32 22 4 22 C3.79375 21.319375 3.5875 20.63875 3.375 19.9375 C2.89936171 16.21166669 3.82330851 13.53007446 5 10 C4.360625 9.7525 3.72125 9.505 3.0625 9.25 C1 8 1 8 0.25 6.125 C0 4 0 4 0 0 Z " fill="#F04D37" transform="translate(183,45)"/>
<path d="M0 0 C0.33 1.32 0.66 2.64 1 4 C0.01 4.66 -0.98 5.32 -2 6 C-2.474375 7.11375 -2.94875 8.2275 -3.4375 9.375 C-4.96521821 12.91930625 -6.29862967 14.38577065 -9 17 C-9.29648437 17.74507812 -9.59296875 18.49015625 -9.8984375 19.2578125 C-11.14070016 22.35025359 -12.77987511 24.93650435 -14.5625 27.75 C-17.7584967 33.09206887 -18.69772656 36.85377333 -19 43 C-19.99 43.495 -19.99 43.495 -21 44 C-22.74199701 47.58646443 -23.45119974 51.06693147 -24 55 C-25.485 55.495 -25.485 55.495 -27 56 C-27 54.68 -27 53.36 -27 52 C-26.34 52 -25.68 52 -25 52 C-24.89816406 50.71738281 -24.79632812 49.43476562 -24.69140625 48.11328125 C-24.10253082 42.87485027 -22.69275999 38.14335861 -20.9375 33.1875 C-20.63094482 32.31528809 -20.32438965 31.44307617 -20.00854492 30.54443359 C-17.29852268 23.18076198 -13.73476434 17.26746125 -9 11 C-8.30261719 9.90429688 -7.60523437 8.80859375 -6.88671875 7.6796875 C-6.26410156 6.79539062 -5.64148438 5.91109375 -5 5 C-4.34 5 -3.68 5 -3 5 C-2.690625 4.360625 -2.38125 3.72125 -2.0625 3.0625 C-1 1 -1 1 0 0 Z " fill="#DA6753" transform="translate(27,31)"/>
<path d="M0 0 C7.92 0 15.84 0 24 0 C24 0.33 24 0.66 24 1 C21.69 1 19.38 1 17 1 C17 1.66 17 2.32 17 3 C15.7625 2.7525 14.525 2.505 13.25 2.25 C10.02570665 1.84982175 9.33128668 1.78466366 6.5 3.625 C4.77602133 6.35463289 4.64795313 7.83157817 5 11 C6.65 11.66 8.3 12.32 10 13 C10 13.66 10 14.32 10 15 C3.07 15 -3.86 15 -11 15 C-11 6 -11 6 -10 4 C-9.34 4 -8.68 4 -8 4 C-7.34 6.97 -6.68 9.94 -6 13 C-3.36 12.34 -0.72 11.68 2 11 C1.67 9.9275 1.34 8.855 1 7.75 C0 4 0 4 0 0 Z " fill="#EBE0DF" transform="translate(42,50)"/>
<path d="M0 0 C3.85645121 -0.22036864 6.49223216 0.39644899 10 2 C9.71640113 3.4391134 9.42278601 4.87625518 9.125 6.3125 C8.96257813 7.11300781 8.80015625 7.91351563 8.6328125 8.73828125 C8 11 8 11 6 14 C3.375 14.1875 3.375 14.1875 1 14 C1 13.34 1 12.68 1 12 C-0.98 11.34 -2.96 10.68 -5 10 C-5 8.35 -5 6.7 -5 5 C-4.01 4.67 -3.02 4.34 -2 4 C-0.79117904 1.99983534 -0.79117904 1.99983534 0 0 Z " fill="#ECDECD" transform="translate(51,51)"/>
<path d="M0 0 C0.66 0 1.32 0 2 0 C2.08714316 3.91652632 2.14043985 7.83280311 2.1875 11.75 C2.22520508 13.41675781 2.22520508 13.41675781 2.26367188 15.1171875 C2.27817383 16.72207031 2.27817383 16.72207031 2.29296875 18.359375 C2.31653442 19.83615723 2.31653442 19.83615723 2.34057617 21.34277344 C1.9412054 24.45872434 1.24555842 25.81880166 -1 28 C-4.6875 28.25 -4.6875 28.25 -8 28 C-7.68977905 27.10075806 -7.68977905 27.10075806 -7.37329102 26.18334961 C-6.42990362 23.43690277 -5.49614404 20.68727355 -4.5625 17.9375 C-4.23701172 16.99455078 -3.91152344 16.05160156 -3.57617188 15.08007812 C-1.87037165 10.03301972 -0.52258875 5.30685192 0 0 Z " fill="#F9EDE9" transform="translate(198,116)"/>
<path d="M0 0 C0.66 0 1.32 0 2 0 C2 1.65 2 3.3 2 5 C1.34 5 0.68 5 0 5 C0.09861328 6.42699219 0.09861328 6.42699219 0.19921875 7.8828125 C0.19293245 12.88419019 -1.4929916 17.22299557 -3.1875 21.875 C-3.47947266 22.72191406 -3.77144531 23.56882813 -4.07226562 24.44140625 C-6.78937378 32.07268205 -10.30590623 39.15871726 -15.3125 45.5625 C-15.82425781 46.22378906 -16.33601562 46.88507813 -16.86328125 47.56640625 C-17.23839844 48.03949219 -17.61351562 48.51257813 -18 49 C-18.33 48.34 -18.66 47.68 -19 47 C-18.505 46.236875 -18.01 45.47375 -17.5 44.6875 C-15.68417432 41.43414565 -16.2637421 40.49722501 -17 37 C-15.75 35.1875 -15.75 35.1875 -14 34 C-13.01 34 -12.02 34 -11 34 C-10.7525 33.21625 -10.505 32.4325 -10.25 31.625 C-9.25766875 28.74723936 -8.17249667 25.99186703 -7 23.1875 C-5.09704532 18.50821964 -3.95896943 13.95467541 -3 9 C-2.34 9 -1.68 9 -1 9 C-1.020625 7.700625 -1.04125 6.40125 -1.0625 5.0625 C-1.08399454 3.70834367 -1.07148199 2.35243917 -1 1 C-0.67 0.67 -0.34 0.34 0 0 Z " fill="#BE4941" transform="translate(198,111)"/>
<path d="M0 0 C10.78638147 7.83160144 20.75337361 16.00647734 27 28 C26.34 28.33 25.68 28.66 25 29 C25 28.34 25 27.68 25 27 C23.68 26.34 22.36 25.68 21 25 C20.01 25.99 19.02 26.98 18 28 C18 25.69 18 23.38 18 21 C16.35 20.34 14.7 19.68 13 19 C13 17.35 13 15.7 13 14 C12.01 13.67 11.02 13.34 10 13 C10.33 12.34 10.66 11.68 11 11 C10.21625 10.773125 9.4325 10.54625 8.625 10.3125 C5.31827043 8.65913521 5.28226023 7.33387661 4 4 C1.95894361 3.11306697 1.95894361 3.11306697 0 3 C0 2.01 0 1.02 0 0 Z " fill="#E4553C" transform="translate(156,17)"/>
<path d="M0 0 C0.66 0.33 1.32 0.66 2 1 C1.83775783 1.58172974 1.67551565 2.16345947 1.50835705 2.76281738 C0.70533179 6.2967787 0.85269903 9.86246788 0.85473633 13.46875 C0.85137772 14.32122314 0.8480191 15.17369629 0.84455872 16.05200195 C0.83506483 18.86801615 0.83310655 21.6839708 0.83203125 24.5 C0.82881818 26.45768254 0.82545407 28.41536484 0.82194519 30.37304688 C0.81595826 34.47526608 0.8141049 38.57746423 0.81469727 42.6796875 C0.814799 47.93897969 0.80113311 53.19813722 0.78392506 58.45739746 C0.77281477 62.49968081 0.77077774 66.54193146 0.77130699 70.58422852 C0.77012594 72.52352361 0.76569715 74.46281953 0.75797462 76.40209961 C0.748192 79.11191295 0.75104567 81.82143206 0.75708008 84.53125 C0.75146057 85.33344971 0.74584106 86.13564941 0.74005127 86.9621582 C0.71324577 92.31915546 0.71324577 92.31915546 3 97 C5.55519921 97.81171228 5.55519921 97.81171228 8 98 C8 98.33 8 98.66 8 99 C5.36 99 2.72 99 0 99 C-1.33665585 94.99003246 -1.1390557 91.13535036 -1.12939453 86.95458984 C-1.13114685 86.02916885 -1.13289917 85.10374786 -1.13470459 84.15028381 C-1.13911104 81.08714938 -1.13618981 78.02407253 -1.1328125 74.9609375 C-1.13348577 72.83769723 -1.13445599 70.71445704 -1.13571167 68.59121704 C-1.13718691 64.14088202 -1.13503921 59.69056706 -1.13037109 55.24023438 C-1.12466698 49.52216691 -1.12795823 43.80414631 -1.13394356 38.08608055 C-1.13754793 33.70250085 -1.13641128 29.31893236 -1.13381577 24.93535233 C-1.13314651 22.82611714 -1.13397486 20.71688096 -1.13629532 18.60764694 C-1.13882056 15.66727733 -1.13498339 12.72698492 -1.12939453 9.78662109 C-1.13141876 8.90660934 -1.13344299 8.0265976 -1.13552856 7.11991882 C-1.11426383 1.11426383 -1.11426383 1.11426383 0 0 Z " fill="#FDDFD5" transform="translate(31,52)"/>
<path d="M0 0 C0 0.66 0 1.32 0 2 C-0.91523437 2.33773438 -1.83046875 2.67546875 -2.7734375 3.0234375 C-4.55621094 3.69246094 -4.55621094 3.69246094 -6.375 4.375 C-7.55835938 4.81585937 -8.74171875 5.25671875 -9.9609375 5.7109375 C-13.04493446 6.7950342 -13.04493446 6.7950342 -15 9 C-15.99 9 -16.98 9 -18 9 C-18 9.66 -18 10.32 -18 11 C-18.7425 11.2475 -19.485 11.495 -20.25 11.75 C-23.20603427 13.09365194 -24.76687128 14.68986685 -27 17 C-27.66 17 -28.32 17 -29 17 C-29.33 17.99 -29.66 18.98 -30 20 C-30.99 19.67 -31.98 19.34 -33 19 C-32.67 21.31 -32.34 23.62 -32 26 C-32.66 26 -33.32 26 -34 26 C-34 25.34 -34 24.68 -34 24 C-36.64 24.66 -39.28 25.32 -42 26 C-33.9710743 15.13733581 -14.23815741 0 0 0 Z " fill="#DB6750" transform="translate(70,5)"/>
<path d="M0 0 C4.81797222 1.66192077 6.48131791 3.52234295 9 8 C9 8.66 9 9.32 9 10 C11.31 10 13.62 10 16 10 C16 10.99 16 11.98 16 13 C16.66 13.33 17.32 13.66 18 14 C18 14.66 18 15.32 18 16 C19.98139735 17.36757038 22.05472212 18.50345036 24.15234375 19.68359375 C26 21 26 21 27 24 C28.32 24 29.64 24 31 24 C31 24.66 31 25.32 31 26 C31.66 26 32.32 26 33 26 C33 26.66 33 27.32 33 28 C19.4602368 24.06079989 6.97711269 11.99723036 0 0 Z " fill="#D76A55" transform="translate(21,160)"/>
<path d="M0 0 C0.33 0 0.66 0 1 0 C1.20031504 11.63067675 1.38402223 23.26148628 1.54658794 34.89275551 C1.62259614 40.29374398 1.70430174 45.69452043 1.79907227 51.09521484 C1.89033725 56.30812703 1.96657822 61.52106319 2.03244972 66.73435593 C2.0602002 68.72231605 2.09334447 70.71020851 2.13199425 72.6979866 C2.18524657 75.48437963 2.21923583 78.2703975 2.2487793 81.05712891 C2.27898415 82.28712112 2.27898415 82.28712112 2.30979919 83.54196167 C2.33739174 88.46548272 1.62820842 91.67810529 -1 96 C-1.66 96 -2.32 96 -3 96 C-2.67657623 95.19444672 -2.35315247 94.38889343 -2.01992798 93.55892944 C-0.79383833 89.28062095 -0.69280658 85.48101137 -0.68115234 81.05712891 C-0.67110672 80.1784314 -0.6610611 79.29973389 -0.65071106 78.39440918 C-0.61994926 75.50513329 -0.6028634 72.61594977 -0.5859375 69.7265625 C-0.56722022 67.71730763 -0.54764639 65.70806057 -0.5272522 63.69882202 C-0.47598419 58.42173881 -0.43632988 53.14463013 -0.39910889 47.86743164 C-0.35903585 42.47796353 -0.30795855 37.08860088 -0.2578125 31.69921875 C-0.16111631 21.13288664 -0.0766913 10.56649492 0 0 Z " fill="#C13639" transform="translate(171,56)"/>
<path d="M0 0 C0 0.66 0 1.32 0 2 C0.7425 1.979375 1.485 1.95875 2.25 1.9375 C4.70462279 1.99328688 6.66109261 2.3069904 9 3 C9.33 4.32 9.66 5.64 10 7 C11.98 6.67 13.96 6.34 16 6 C16.33 8.64 16.66 11.28 17 14 C16.01 14.495 16.01 14.495 15 15 C13.93072266 14.20335937 13.93072266 14.20335937 12.83984375 13.390625 C7.68760515 9.59058899 2.60291413 6.08732003 -3 3 C-4.35387289 2.02798869 -5.69855198 1.04115841 -7 0 C-4.3333581 -1.33332095 -2.83319697 -0.67102033 0 0 Z " fill="#FAF9EF" transform="translate(151,10)"/>
<path d="M0 0 C0 0.66 0 1.32 0 2 C-6.75 6 -6.75 6 -9 6 C-9.33 6.99 -9.66 7.98 -10 9 C-12.90625 10.1328125 -12.90625 10.1328125 -16.5 11.125 C-20.55920659 11.96888396 -20.55920659 11.96888396 -24 14 C-25.68608966 14.07205511 -27.37500659 14.08386068 -29.0625 14.0625 C-29.98160156 14.05347656 -30.90070313 14.04445312 -31.84765625 14.03515625 C-32.55792969 14.02355469 -33.26820312 14.01195312 -34 14 C-34 13.34 -34 12.68 -34 12 C-32.86304687 11.72027344 -31.72609375 11.44054687 -30.5546875 11.15234375 C-21.28976242 8.77871023 -13.03830779 5.92241476 -4.625 1.35546875 C-2 0 -2 0 0 0 Z " fill="#FCE5DD" transform="translate(152,186)"/>
<path d="M0 0 C-1.61643325 3.83560432 -4.15768566 6.71607254 -6.9375 9.75 C-7.41678955 10.2749707 -7.8960791 10.79994141 -8.38989258 11.34082031 C-13.08335193 16.33434954 -18.27056978 20.23209618 -24 24 C-24.33 23.34 -24.66 22.68 -25 22 C-24.34 22 -23.68 22 -23 22 C-23 21.01 -23 20.02 -23 19 C-21.68 19 -20.36 19 -19 19 C-18.67 18.01 -18.34 17.02 -18 16 C-17.01 16 -16.02 16 -15 16 C-14.95875 15.278125 -14.9175 14.55625 -14.875 13.8125 C-13.84431225 10.4995751 -12.27465452 9.32383892 -9.55859375 7.265625 C-7.34289618 5.46641193 -5.74545416 3.24415534 -4 1 C-2 0 -2 0 0 0 Z " fill="#BD413A" transform="translate(179,160)"/>
<path d="M0 0 C0.66 0 1.32 0 2 0 C3.10589691 1.25471154 4.16083729 2.55466947 5.1875 3.875 C8.57583023 7.90398091 10.85240261 9.15957594 16 10 C16 10.99 16 11.98 16 13 C11.76570244 11.68938409 7.92592596 10.05643741 4 8 C4 9.65 4 11.3 4 13 C3.67 12.34 3.34 11.68 3 11 C0.47266765 10.34444881 0.47266765 10.34444881 -2 10 C-1.125 2.25 -1.125 2.25 0 0 Z " fill="#DDEDF2" transform="translate(112,80)"/>
<path d="M0 0 C1.98 0 3.96 0 6 0 C2.75105865 2.66111333 -0.63385592 4.30531142 -4.4375 6.0625 C-12.09370789 9.71960648 -18.48189165 14.61877101 -25 20 C-25.33 19.01 -25.66 18.02 -26 17 C-21.375 13 -21.375 13 -18 13 C-17.67 12.01 -17.34 11.02 -17 10 C-16.34 10 -15.68 10 -15 10 C-14.67 8.68 -14.34 7.36 -14 6 C-12.741875 5.71125 -11.48375 5.4225 -10.1875 5.125 C-7.1460601 4.42696461 -5.69330122 3.79553415 -3 2 C-2.01 2 -1.02 2 0 2 C0 1.34 0 0.68 0 0 Z " fill="#FBE2D9" transform="translate(58,6)"/>
<path d="M0 0 C5.44646973 -0.5187114 7.55746433 1.03830955 12 4 C14.29181683 4.66641482 16.5690661 5.12623251 18.9140625 5.56640625 C21 6 21 6 23.4375 7.0625 C27.49451123 8.5467724 31.71327605 8.68369804 36 9 C35.67 9.99 35.34 10.98 35 12 C32.69 12 30.38 12 28 12 C28 11.34 28 10.68 28 10 C26.989375 9.938125 25.97875 9.87625 24.9375 9.8125 C20.58048866 9.26592152 16.4775011 8.03659708 12.3125 6.6875 C11.67111084 6.48680908 11.02972168 6.28611816 10.36889648 6.0793457 C6.22913315 4.69225896 3.243589 2.90868689 0 0 Z " fill="#D95F55" transform="translate(54,188)"/>
<path d="M0 0 C3.29714793 0.32971479 4.6226839 0.6226839 7 3 C6.67028521 6.29714793 6.3773161 7.6226839 4 10 C-0.55555556 9.44444444 -0.55555556 9.44444444 -2 8 C-2.1875 5.0625 -2.1875 5.0625 -2 2 C-1.34 1.34 -0.68 0.68 0 0 Z " fill="#61B15E" transform="translate(65,52)"/>
<path d="M0 0 C0.33 0 0.66 0 1 0 C0.56179109 4.55737263 0.14958831 7.57653445 -3 11 C-2.34 11.33 -1.68 11.66 -1 12 C-1 12.66 -1 13.32 -1 14 C-0.34 14.33 0.32 14.66 1 15 C1.33 14.01 1.66 13.02 2 12 C2 13.32 2 14.64 2 16 C0.1128125 16.12375 0.1128125 16.12375 -1.8125 16.25 C-5.33811212 16.66557143 -5.33811212 16.66557143 -8 19.0625 C-8.33 19.701875 -8.66 20.34125 -9 21 C-10.32 20.67 -11.64 20.34 -13 20 C-11.96939453 18.71416016 -11.96939453 18.71416016 -10.91796875 17.40234375 C-10.00740778 16.24771489 -9.09727427 15.09274883 -8.1875 13.9375 C-7.73568359 13.37611328 -7.28386719 12.81472656 -6.81835938 12.23632812 C-3.76613203 8.33749757 -1.77376602 4.62593464 0 0 Z " fill="#F7E8E3" transform="translate(189,144)"/>
<path d="M0 0 C8.35715006 2.25131389 16.68214634 4.60785814 25 7 C25 7.66 25 8.32 25 9 C21.7 9 18.4 9 15 9 C15 8.34 15 7.68 15 7 C12.36 6.34 9.72 5.68 7 5 C6.67 5.66 6.34 6.32 6 7 C6 6.34 6 5.68 6 5 C4.35 4.67 2.7 4.34 1 4 C0.67 2.68 0.34 1.36 0 0 Z " fill="#FDDDD1" transform="translate(57,191)"/>
<path d="M0 0 C1.98 0 3.96 0 6 0 C6 0.66 6 1.32 6 2 C7.2375 2.0825 8.475 2.165 9.75 2.25 C17.90093345 3.15136705 25.84563163 6.02535091 33 10 C31 11 31 11 28.296875 10.1875 C26.66492188 9.5996875 26.66492188 9.5996875 25 9 C17.07019872 6.59475222 9.16650541 4.43007929 1 3 C0.67 2.01 0.34 1.02 0 0 Z " fill="#D6604F" transform="translate(111,0)"/>
<path d="M0 0 C2.79192205 -0.05380578 5.5828141 -0.09357669 8.375 -0.125 C9.1690625 -0.14175781 9.963125 -0.15851562 10.78125 -0.17578125 C12.85492015 -0.19335473 14.92883241 -0.10335168 17 0 C17.66 0.66 18.32 1.32 19 2 C18.34 2 17.68 2 17 2 C17.33 3.32 17.66 4.64 18 6 C11.80759538 5.31195504 5.98044406 3.71951285 0 2 C0 1.34 0 0.68 0 0 Z " fill="#FAEEE3" transform="translate(117,0)"/>
<path d="M0 0 C2.75 1.375 2.75 1.375 5 3 C4.125 7.875 4.125 7.875 3 9 C0 9.125 0 9.125 -3 9 C-4 8 -4 8 -4.0625 4.9375 C-4.041875 3.968125 -4.02125 2.99875 -4 2 C-2.3125 0.8125 -2.3125 0.8125 0 0 Z " fill="#CB6665" transform="translate(39,52)"/>
<path d="M0 0 C3.3652527 2.95417628 4.64058131 5.20488915 5.8125 9.5 C7.6019956 15.32477251 10.20007764 20.15077962 13.4140625 25.30859375 C14.89556275 27.82276536 15.99738187 30.26513568 17 33 C7.8203039 25.21116694 3.36403627 13.25479416 0 2 C0 1.34 0 0.68 0 0 Z " fill="#CC6855" transform="translate(4,127)"/>
<path d="M0 0 C0.66 0 1.32 0 2 0 C3.32 5.94 4.64 11.88 6 18 C5.01 17.67 4.02 17.34 3 17 C3 16.01 3 15.02 3 14 C2.34 14 1.68 14 1 14 C1.99 15.98 2.98 17.96 4 20 C2.68 19.67 1.36 19.34 0 19 C0 12.73 0 6.46 0 0 Z " fill="#F8E8DE" transform="translate(0,116)"/>
<path d="M0 0 C2.68387755 2.68387755 3.09546996 5.17101413 4.125 8.8125 C4.47820312 10.03582031 4.83140625 11.25914063 5.1953125 12.51953125 C5.88931765 15.52127195 6.17454331 17.94549201 6 21 C6.66 21 7.32 21 8 21 C8 22.65 8 24.3 8 26 C7.67 25.34 7.34 24.68 7 24 C6.01 23.67 5.02 23.34 4 23 C3.33984375 21.14453125 3.33984375 21.14453125 2.9375 18.8125 C2.41346824 16.0205997 1.85997429 13.61881889 0.875 10.9375 C-0.25647318 7.13898291 -0.13634876 3.95411415 0 0 Z " fill="#DA6156" transform="translate(192,62)"/>
<path d="M0 0 C3.0148635 2.90621977 5.65605355 5.96433449 8.25 9.25 C8.95640625 10.14203125 9.6628125 11.0340625 10.390625 11.953125 C10.92171875 12.62859375 11.4528125 13.3040625 12 14 C11.67 14.66 11.34 15.32 11 16 C7.535 14.02 7.535 14.02 4 12 C4 11.01 4 10.02 4 9 C2.35 8.67 0.7 8.34 -1 8 C-1.33 6.35 -1.66 4.7 -2 3 C-1.34 3 -0.68 3 0 3 C0 2.01 0 1.02 0 0 Z " fill="#F8EEE3" transform="translate(14,152)"/>
<path d="M0 0 C1.45606519 4.52092968 0.27032841 7.51648796 -1 12 C-2.65 12 -4.3 12 -6 12 C-7.33176248 8.00471255 -6.41870859 5.90144863 -5 2 C-2 0 -2 0 0 0 Z " fill="#5A8795" transform="translate(98,116)"/>
<path d="M0 0 C0 0.66 0 1.32 0 2 C-0.91523437 2.33773438 -1.83046875 2.67546875 -2.7734375 3.0234375 C-4.55621094 3.69246094 -4.55621094 3.69246094 -6.375 4.375 C-7.55835937 4.81585937 -8.74171875 5.25671875 -9.9609375 5.7109375 C-13.04493446 6.7950342 -13.04493446 6.7950342 -15 9 C-15.99 9 -16.98 9 -18 9 C-18 9.66 -18 10.32 -18 11 C-22.95 12.485 -22.95 12.485 -28 14 C-24.58161085 10.05025502 -20.74313379 8.10356732 -16.125 5.875 C-15.43019531 5.52824219 -14.73539063 5.18148438 -14.01953125 4.82421875 C-4.20474138 0 -4.20474138 0 0 0 Z " fill="#D36B59" transform="translate(70,5)"/>
<path d="M0 0 C0 0.99 0 1.98 0 3 C-2.9063515 5.80255323 -3.78825048 6 -8 6 C-7.67 7.32 -7.34 8.64 -7 10 C-13.75 9.25 -13.75 9.25 -16 7 C-10.72 4.69 -5.44 2.38 0 0 Z " fill="#D3E8EE" transform="translate(73,100)"/>
<path d="M0 0 C0.1546875 0.7734375 0.1546875 0.7734375 0.3125 1.5625 C1.85106763 7.21967796 1.85106763 7.21967796 5 12 C5.07226502 13.85287502 5.0838122 15.70833878 5.0625 17.5625 C5.05347656 18.57441406 5.04445312 19.58632812 5.03515625 20.62890625 C5.02355469 21.41136719 5.01195312 22.19382812 5 23 C4.34 23 3.68 23 3 23 C2.10157416 19.92300326 1.23546321 16.83780807 0.375 13.75 C0.11976563 12.87730469 -0.13546875 12.00460938 -0.3984375 11.10546875 C-0.74648437 9.83896484 -0.74648437 9.83896484 -1.1015625 8.546875 C-1.32150879 7.77182617 -1.54145508 6.99677734 -1.76806641 6.19824219 C-2.05072541 3.51922986 -1.39149244 2.26061232 0 0 Z " fill="#FEDAD1" transform="translate(195,60)"/>
<path d="M0 0 C3.23680864 2.92491059 5.03891721 5.64917394 6.8125 9.625 C7.25207031 10.58664063 7.69164062 11.54828125 8.14453125 12.5390625 C8.56798828 13.75722656 8.56798828 13.75722656 9 15 C8.67 15.66 8.34 16.32 8 17 C7.67 16.67 7.34 16.34 7 16 C6.34 16.99 5.68 17.98 5 19 C4.34 19 3.68 19 3 19 C3.66 16.03 4.32 13.06 5 10 C3.68 9.34 2.36 8.68 1 8 C-0.12877968 5.17805079 0 3.12179761 0 0 Z " fill="#DA6852" transform="translate(183,45)"/>
<path d="M0 0 C2.25 0.0625 2.25 0.0625 5 1 C8.55947033 5.81009504 9.49729503 8.90813584 9 15 C6.47830012 13.73915006 6.22882167 12.71218827 5.0625 10.1875 C3.62307504 7.17387246 2.03954062 4.65140281 0 2 C0 1.34 0 0.68 0 0 Z " fill="#F9E9DD" transform="translate(182,42)"/>
<path d="M0 0 C4.70588235 0.70588235 4.70588235 0.70588235 6 2 C6.04063832 3.66617115 6.042721 5.33388095 6 7 C1.25 8.125 1.25 8.125 -1 7 C-1.04254356 5.00045254 -1.04080783 2.99958364 -1 1 C-0.67 0.67 -0.34 0.34 0 0 Z " fill="#EAB425" transform="translate(51,53)"/>
<path d="M0 0 C0.33 0.66 0.66 1.32 1 2 C2.98 1.67 4.96 1.34 7 1 C6.0078043 3.59579847 5.46306676 4.76451254 2.94140625 6.046875 C2.15636719 6.27890625 1.37132812 6.5109375 0.5625 6.75 C-0.21996094 6.99234375 -1.00242188 7.2346875 -1.80859375 7.484375 C-4 8 -4 8 -7 8 C-7 7.34 -7 6.68 -7 6 C-6.01 6 -5.02 6 -4 6 C-2.8509288 4.0745356 -2.8509288 4.0745356 -3 2 C-2.01 1.34 -1.02 0.68 0 0 Z " fill="#D2312E" transform="translate(147,181)"/>
<path d="M0 0 C5.76044212 0.60636233 10.72014369 2.75658279 16 5 C13.82711465 7.17288535 12.98970481 7.64827002 10 8 C7.75 7.0625 7.75 7.0625 6 6 C6 5.34 6 4.68 6 4 C3.03 3.505 3.03 3.505 0 3 C0 2.01 0 1.02 0 0 Z " fill="#D3E8F2" transform="translate(128,102)"/>
<path d="M0 0 C0.33 0.66 0.66 1.32 1 2 C0.3125 4.0625 0.3125 4.0625 -1 6 C-3.125 6.75 -3.125 6.75 -5 7 C-5 7.66 -5 8.32 -5 9 C-8.6678852 10.96189209 -11.87248551 12.39301257 -16 13 C-13.27690113 10.04838934 -10.09517925 7.74615336 -6.875 5.375 C-3.29798559 2.85080975 -3.29798559 2.85080975 0 0 Z " fill="#FBDED8" transform="translate(168,173)"/>
<path d="M0 0 C0.969375 0.845625 1.93875 1.69125 2.9375 2.5625 C7.17152248 6.19785946 11.57169222 9.60596819 16 13 C15.01 13.495 15.01 13.495 14 14 C11.375 13.0625 11.375 13.0625 9 12 C9 11.34 9 10.68 9 10 C8.4225 9.731875 7.845 9.46375 7.25 9.1875 C4.88680786 7.9402597 2.96014597 6.82496349 1 5 C0.25 2.3125 0.25 2.3125 0 0 Z " fill="#FCE4D6" transform="translate(26,168)"/>
<path d="M0 0 C1.2375 0.1546875 1.2375 0.1546875 2.5 0.3125 C4.93769218 3.96903827 4.73944439 6.00250101 4.5 10.3125 C3.5 11.3125 3.5 11.3125 0.625 11.5 C-2.5 11.3125 -2.5 11.3125 -5.5 9.3125 C-4.52816901 0.56602113 -4.52816901 0.56602113 0 0 Z M-2.5 2.3125 C-3.85618499 3.43784105 -3.85618499 3.43784105 -3.5625 6.375 C-3.541875 7.344375 -3.52125 8.31375 -3.5 9.3125 C-1.5085944 9.69383299 0.49279077 10.02575582 2.5 10.3125 C3.77003323 9.25939723 3.77003323 9.25939723 3.6875 6.875 C3.76839983 4.14515325 3.76839983 4.14515325 1.5 2.3125 C0.18 2.3125 -1.14 2.3125 -2.5 2.3125 Z " fill="#ECCE89" transform="translate(53.5,50.6875)"/>
<path d="M0 0 C2.97 0.495 2.97 0.495 6 1 C6 3.31 6 5.62 6 8 C5.01 8.495 5.01 8.495 4 9 C1.875 8.0625 1.875 8.0625 0 7 C0 4.69 0 2.38 0 0 Z " fill="#678EA0" transform="translate(48,104)"/>
<path d="M0 0 C1.29207255 3.87621764 0.39998434 5.53246098 -0.875 9.375 C-2.14578478 13.24067399 -3.29405426 16.98962738 -4 21 C-4.66 21 -5.32 21 -6 21 C-6.22577402 15.5814234 -5.46670113 11.22512279 -4 6 C-3.34 6 -2.68 6 -2 6 C-1.855625 5.38125 -1.71125 4.7625 -1.5625 4.125 C-1 2 -1 2 0 0 Z " fill="#FDDFD1" transform="translate(6,62)"/>
<path d="M0 0 C0.33 0 0.66 0 1 0 C1.05793591 4.43744539 1.09357467 8.87479389 1.125 13.3125 C1.14175781 14.57513672 1.15851563 15.83777344 1.17578125 17.13867188 C1.18222656 18.34716797 1.18867188 19.55566406 1.1953125 20.80078125 C1.20578613 21.91622314 1.21625977 23.03166504 1.22705078 24.1809082 C1 27 1 27 -1 30 C-4.625 30.1875 -4.625 30.1875 -8 30 C-8 29.67 -8 29.34 -8 29 C-7.030625 28.731875 -6.06125 28.46375 -5.0625 28.1875 C-4.051875 27.795625 -3.04125 27.40375 -2 27 C-0.98412022 23.95236066 -0.80195594 21.65281033 -0.68359375 18.45703125 C-0.64169922 17.38388672 -0.59980469 16.31074219 -0.55664062 15.20507812 C-0.51732422 14.08552734 -0.47800781 12.96597656 -0.4375 11.8125 C-0.37272461 10.11577148 -0.37272461 10.11577148 -0.30664062 8.38476562 C-0.20050901 5.58996646 -0.09845615 2.79507838 0 0 Z " fill="#FFD5D4" transform="translate(169,121)"/>
<path d="M0 0 C0.99 0 1.98 0 3 0 C3.66 3.3 4.32 6.6 5 10 C9.14093698 10.20970559 9.14093698 10.20970559 13 9 C13.33 9.99 13.66 10.98 14 12 C11.03 12.66 8.06 13.32 5 14 C2.5705484 10.3558226 2.83820425 8.28758728 3 4 C1.68 3.67 0.36 3.34 -1 3 C-0.67 2.01 -0.34 1.02 0 0 Z " fill="#F0C0BF" transform="translate(31,50)"/>
<path d="M0 0 C0.78375 0.2475 1.5675 0.495 2.375 0.75 C2.705 1.41 3.035 2.07 3.375 2.75 C5.68465848 3.80352843 8.0179774 4.80719096 10.375 5.75 C10.375 6.41 10.375 7.07 10.375 7.75 C6.42550296 7.12183502 3.17607972 5.8854471 -0.4375 4.1875 C-1.90123047 3.50494141 -1.90123047 3.50494141 -3.39453125 2.80859375 C-4.13058594 2.45925781 -4.86664063 2.10992187 -5.625 1.75 C-2.625 -0.25 -2.625 -0.25 0 0 Z " fill="#E0F0F4" transform="translate(133.625,92.25)"/>
<path d="M0 0 C1.96426666 2.94639999 3.5345824 5.90087274 5.125 9.0625 C5.66382813 10.12597656 6.20265625 11.18945312 6.7578125 12.28515625 C8 15 8 15 8 17 C5.525 16.01 5.525 16.01 3 15 C3 13.35 3 11.7 3 10 C2.01 9.67 1.02 9.34 0 9 C0 6.03 0 3.06 0 0 Z " fill="#FAE0D5" transform="translate(6,135)"/>
<path d="M0 0 C0.33 0 0.66 0 1 0 C1 2.64 1 5.28 1 8 C-1.49219084 9.17686789 -3.34350674 10.03861725 -6.125 9.875 C-8.60014001 8.71993466 -9.59753752 7.31406309 -11 5 C-11 4.34 -11 3.68 -11 3 C-7.27566618 4.2125738 -3.62197194 5.50859979 0 7 C0 4.69 0 2.38 0 0 Z " fill="#C9DAE5" transform="translate(83,119)"/>
<path d="M0 0 C0.40729228 2.32156597 0.74438677 4.6568787 1 7 C0.01 7.495 0.01 7.495 -1 8 C-3 6.6875 -3 6.6875 -5 5 C-5 4.01 -5 3.02 -5 2 C-5.66 2 -6.32 2 -7 2 C-6 0 -6 0 -4.0625 -0.6875 C-2 -1 -2 -1 0 0 Z " fill="#F9F1E7" transform="translate(167,17)"/>
<path d="M0 0 C0.33 0 0.66 0 1 0 C1.05395478 1.62463842 1.09277195 3.24978541 1.125 4.875 C1.14820313 5.77992188 1.17140625 6.68484375 1.1953125 7.6171875 C1 10 1 10 -1 12 C-3.52259061 10.02579865 -3.9929808 9.03254358 -4.6875 5.8125 C-4.790625 4.884375 -4.89375 3.95625 -5 3 C-4.360625 2.87625 -3.72125 2.7525 -3.0625 2.625 C-2.0415625 2.315625 -2.0415625 2.315625 -1 2 C-0.67 1.34 -0.34 0.68 0 0 Z " fill="#EB5032" transform="translate(25,151)"/>
<path d="M0 0 C0 0.66 0 1.32 0 2 C-2.24805002 2.67321284 -4.49852224 3.33834123 -6.75 4 C-8.00296875 4.37125 -9.2559375 4.7425 -10.546875 5.125 C-14 6 -14 6 -18 6 C-18 5.34 -18 4.68 -18 4 C-15.5636811 3.32873871 -13.12611117 2.66283646 -10.6875 2 C-9.65206055 1.71382813 -9.65206055 1.71382813 -8.59570312 1.421875 C-5.64212051 0.62283816 -3.07440781 0 0 0 Z " fill="#FCDBCB" transform="translate(82,0)"/>
<path d="M0 0 C5.95185968 4.61572792 9.90441138 9.7010096 14 16 C13.34 16.66 12.68 17.32 12 18 C11.52949219 17.21753906 11.05898437 16.43507813 10.57421875 15.62890625 C9.95160156 14.61699219 9.32898438 13.60507812 8.6875 12.5625 C8.07261719 11.55316406 7.45773438 10.54382813 6.82421875 9.50390625 C5.17948035 6.73729397 5.17948035 6.73729397 2 6 C0.8125 2.9375 0.8125 2.9375 0 0 Z " fill="#D06F5F" transform="translate(169,28)"/>
<path d="M0 0 C4.69159716 3.38772897 9.0299782 6.78185183 13 11 C8.71193127 10.52354792 6.73352513 9.34097516 4 6 C4 5.34 4 4.68 4 4 C2.68 3.67 1.36 3.34 0 3 C0 2.01 0 1.02 0 0 Z " fill="#D56859" transform="translate(156,17)"/>
<path d="M0 0 C2.33944736 0.28730055 4.6739143 0.61936779 7 1 C6.67 3.64 6.34 6.28 6 9 C6.66 9.33 7.32 9.66 8 10 C7.01 10 6.02 10 5 10 C3.39453125 8.03125 3.39453125 8.03125 1.8125 5.5 C1.28269531 4.6646875 0.75289062 3.829375 0.20703125 2.96875 C-0.19128906 2.3190625 -0.58960938 1.669375 -1 1 C-0.67 0.67 -0.34 0.34 0 0 Z " fill="#FCF1E9" transform="translate(175,31)"/>
<path d="M0 0 C2.375 -0.1875 2.375 -0.1875 5 0 C7.42130331 3.63195496 7.21022785 5.38349348 7.125 9.6875 C7.10695312 10.86699219 7.08890625 12.04648437 7.0703125 13.26171875 C7.03550781 14.61716797 7.03550781 14.61716797 7 16 C6.34 16 5.68 16 5 16 C5.03480469 15.00419922 5.03480469 15.00419922 5.0703125 13.98828125 C5.33965797 7.21996327 5.33965797 7.21996327 3 1 C2.01 0.67 1.02 0.34 0 0 Z " fill="#FAD2C7" transform="translate(163,49)"/>
<path d="M0 0 C0.33 0 0.66 0 1 0 C0.88529863 1.75070517 0.75780972 3.50057536 0.625 5.25 C0.55539063 6.22453125 0.48578125 7.1990625 0.4140625 8.203125 C0.01534751 10.89633189 -0.63507063 12.66963279 -2 15 C-2.99 14.67 -3.98 14.34 -5 14 C-3.35 9.38 -1.7 4.76 0 0 Z " fill="#F9D8CC" transform="translate(195,129)"/>
<path d="M0 0 C1.98 0.495 1.98 0.495 4 1 C4.33 3.64 4.66 6.28 5 9 C4.01 9.495 4.01 9.495 3 10 C3 9.01 3 8.02 3 7 C1.68 7 0.36 7 -1 7 C-1 6.34 -1 5.68 -1 5 C-0.34 5 0.32 5 1 5 C1 4.34 1 3.68 1 3 C0.34 3 -0.32 3 -1 3 C-0.67 2.01 -0.34 1.02 0 0 Z " fill="#DCE5EC" transform="translate(68,120)"/>
<path d="M0 0 C0.33 0 0.66 0 1 0 C1 2.31 1 4.62 1 7 C-1.95664519 8.4783226 -4.74229737 8.06032783 -8 8 C-8.33 7.01 -8.66 6.02 -9 5 C-6.36 5 -3.72 5 -1 5 C-0.67 3.35 -0.34 1.7 0 0 Z " fill="#56868F" transform="translate(82,89)"/>
<path d="M0 0 C1.98 0 3.96 0 6 0 C3.11814245 2.27339111 0.20291993 4.07542568 -3.0625 5.75 C-3.91972656 6.19859375 -4.77695312 6.6471875 -5.66015625 7.109375 C-8 8 -8 8 -11 7 C-3.5 2 -3.5 2 0 2 C0 1.34 0 0.68 0 0 Z " fill="#FEDAD3" transform="translate(58,6)"/>
<path d="M0 0 C-1.55575978 0.84584998 -3.1199612 1.67618399 -4.6875 2.5 C-5.99267578 3.19609375 -5.99267578 3.19609375 -7.32421875 3.90625 C-10.11788829 5.04818792 -12.01629113 5.21504208 -15 5 C-12.72676563 2.4061813 -10.76597542 1.31688531 -7.5 0.25 C-6.7265625 -0.01296875 -5.953125 -0.2759375 -5.15625 -0.546875 C-3 -1 -3 -1 0 0 Z " fill="#B4463E" transform="translate(146,189)"/>
<path d="M0 0 C5.75 1.75 5.75 1.75 8 4 C5 5 5 5 3 5 C2.13375 5.556875 2.13375 5.556875 1.25 6.125 C-1.9847107 7.38294305 -3.88372694 6.27483898 -7 5 C-7 4.67 -7 4.34 -7 4 C-5.02 4 -3.04 4 -1 4 C-0.67 2.68 -0.34 1.36 0 0 Z " fill="#6892A1" transform="translate(131,95)"/>
<path d="M0 0 C-1.98 0.66 -3.96 1.32 -6 2 C-6 2.99 -6 3.98 -6 5 C-7.65 5 -9.3 5 -11 5 C-10.875 3.125 -10.875 3.125 -10 1 C-6.36961463 -0.69417984 -3.80522763 -1.46354909 0 0 Z " fill="#D83C39" transform="translate(124,195)"/>
<path d="M0 0 C0.99 0.33 1.98 0.66 3 1 C3 1.99 3 2.98 3 4 C2.34 4 1.68 4 1 4 C1.103125 4.886875 1.20625 5.77375 1.3125 6.6875 C0.90501428 11.00684858 -0.7722703 12.25642975 -4 15 C-3.690625 14.278125 -3.38125 13.55625 -3.0625 12.8125 C-1.67241337 9.13285891 -1 5.93204051 -1 2 C-0.67 1.34 -0.34 0.68 0 0 Z " fill="#C73631" transform="translate(183,145)"/>
<path d="M0 0 C2.91517292 1.07401108 4.77810176 1.77810176 7 4 C6.030625 4.144375 5.06125 4.28875 4.0625 4.4375 C1.13513227 4.67562341 1.13513227 4.67562341 0 6 C-1.66014616 6.36442233 -3.32706064 6.69972883 -5 7 C-3.625 4.5 -3.625 4.5 -2 2 C-1.34 2 -0.68 2 0 2 C0 1.34 0 0.68 0 0 Z " fill="#528195" transform="translate(140,109)"/>
<path d="M0 0 C-3.60957611 3.2910841 -6.12637153 4.54663921 -11 5 C-11.33 4.01 -11.66 3.02 -12 2 C-10.56656 1.46809459 -9.12804633 0.94984742 -7.6875 0.4375 C-6.48673828 0.00244141 -6.48673828 0.00244141 -5.26171875 -0.44140625 C-3 -1 -3 -1 0 0 Z " fill="#E1F0F4" transform="translate(76,91)"/>
<path d="M0 0 C0.66 0.33 1.32 0.66 2 1 C2.125 7.625 2.125 7.625 1 11 C-1.0625 12.1875 -1.0625 12.1875 -3 13 C-2.68817931 11.58318366 -2.37551263 10.16655349 -2.0625 8.75 C-1.88847656 7.96109375 -1.71445313 7.1721875 -1.53515625 6.359375 C-1.052444 4.23121297 -0.53836822 2.11467158 0 0 Z " fill="#D4E3EB" transform="translate(108,92)"/>
<path d="M0 0 C0.66 0 1.32 0 2 0 C2.33 1.98 2.66 3.96 3 6 C3.66 5.34 4.32 4.68 5 4 C5.33 5.32 5.66 6.64 6 8 C5.01 8.495 5.01 8.495 4 9 C3.67 9.99 3.34 10.98 3 12 C2.01 11.67 1.02 11.34 0 11 C0 10.67 0 10.34 0 10 C-0.66 9.67 -1.32 9.34 -2 9 C-1.01 8.67 -0.02 8.34 1 8 C0.67 5.36 0.34 2.72 0 0 Z " fill="#C6D6D9" transform="translate(82,88)"/>
<path d="M0 0 C5.75 -0.125 5.75 -0.125 8 1 C8 2.32 8 3.64 8 5 C5.36 4.67 2.72 4.34 0 4 C0 2.68 0 1.36 0 0 Z " fill="#58879A" transform="translate(123,95)"/>
<path d="M0 0 C4.62 2.31 9.24 4.62 14 7 C9.77598013 8.05600497 9.06540003 7.98114481 5.3125 6.3125 C4.52488281 5.97863281 3.73726562 5.64476562 2.92578125 5.30078125 C1 4 1 4 0 0 Z " fill="#FBE0CF" transform="translate(42,182)"/>
<path d="M0 0 C2.31 0.33 4.62 0.66 7 1 C7.33 1.99 7.66 2.98 8 4 C5.29120665 5.35439668 2.99066732 5.06501451 0 5 C0 3.33333333 0 1.66666667 0 0 Z " fill="#588494" transform="translate(132,98)"/>
<path d="M0 0 C3 1 3 1 7 3 C3.37 4.32 -0.26 5.64 -4 7 C-4 5 -4 5 -2 3 C-1.34 2.01 -0.68 1.02 0 0 Z " fill="#6690A2" transform="translate(73,95)"/>
<path d="M0 0 C5.75 1.75 5.75 1.75 8 4 C3.25 5 3.25 5 1 5 C0.67 5.99 0.34 6.98 0 8 C0 5.36 0 2.72 0 0 Z " fill="#7A95A1" transform="translate(116,88)"/>
<path d="M0 0 C0.8125 1.6875 0.8125 1.6875 1 4 C-1.63640136 7.16368164 -4.17207132 9.4404735 -8 11 C-7.1875 8.5625 -7.1875 8.5625 -6 6 C-5.01 5.67 -4.02 5.34 -3 5 C-1.8499169 3.03327085 -1.8499169 3.03327085 -1 1 C-0.67 0.67 -0.34 0.34 0 0 Z " fill="#D57561" transform="translate(27,31)"/>
<path d="M0 0 C0.99 0 1.98 0 3 0 C3 0.66 3 1.32 3 2 C5.31 2.66 7.62 3.32 10 4 C9.67 4.66 9.34 5.32 9 6 C8.4225 5.814375 7.845 5.62875 7.25 5.4375 C4.79307475 4.95976454 3.35602466 5.24270636 1 6 C0.4465236 3.92446352 0 2.15634036 0 0 Z " fill="#FAF7F0" transform="translate(32,178)"/>
<path d="M0 0 C0.99 0.33 1.98 0.66 3 1 C-0.96 3.97 -4.92 6.94 -9 10 C-9.33 9.34 -9.66 8.68 -10 8 C-9.34 8 -8.68 8 -8 8 C-8 7.01 -8 6.02 -8 5 C-6.68 5 -5.36 5 -4 5 C-3.67 4.01 -3.34 3.02 -3 2 C-2.01 2 -1.02 2 0 2 C0 1.34 0 0.68 0 0 Z " fill="#BB4F4C" transform="translate(164,174)"/>
<path d="M0 0 C3.19199167 2.41556126 5.74716687 4.68003538 8 8 C7.67 8.66 7.34 9.32 7 10 C3.535 8.02 3.535 8.02 0 6 C0 4.02 0 2.04 0 0 Z " fill="#F8D3C6" transform="translate(18,158)"/>
<path d="M0 0 C-0.99 1.485 -0.99 1.485 -2 3 C-4.64 2.67 -7.28 2.34 -10 2 C-10 1.01 -10 0.02 -10 -1 C-6.06329512 -2.31223496 -3.87511856 -1.24296256 0 0 Z " fill="#5D91A1" transform="translate(82,118)"/>
<path d="M0 0 C2.625 0.9375 2.625 0.9375 5 2 C5 4.31 5 6.62 5 9 C4.67 8.34 4.34 7.68 4 7 C3.01 7 2.02 7 1 7 C1 5.35 1 3.7 1 2 C0.01 1.67 -0.98 1.34 -2 1 C-1.34 0.67 -0.68 0.34 0 0 Z " fill="#6B8C9A" transform="translate(147,102)"/>
<path d="M0 0 C1.60332791 -0.08121924 3.20784026 -0.13929134 4.8125 -0.1875 C6.15248047 -0.23970703 6.15248047 -0.23970703 7.51953125 -0.29296875 C10.41647515 0.04918998 11.22555028 0.75393573 13 3 C9.57056481 4.18771723 7.62215325 3.80226223 4.25 2.5625 C3.45078125 2.27503906 2.6515625 1.98757812 1.828125 1.69140625 C1.22484375 1.46324219 0.6215625 1.23507813 0 1 C0 0.67 0 0.34 0 0 Z " fill="#FAD2C9" transform="translate(122,2)"/>
<path d="M0 0 C1.15941038 3.47823115 0.70820884 5.45895578 0 9 C-0.33 8.34 -0.66 7.68 -1 7 C-1.66 7 -2.32 7 -3 7 C-3.33 7.66 -3.66 8.32 -4 9 C-4.66 8.34 -5.32 7.68 -6 7 C-4.02 4.69 -2.04 2.38 0 0 Z " fill="#F6E0D7" transform="translate(175,165)"/>
<path d="M0 0 C0 0.66 0 1.32 0 2 C-1.57533086 2.86883706 -3.16064509 3.71959068 -4.75 4.5625 C-5.63171875 5.03816406 -6.5134375 5.51382813 -7.421875 6.00390625 C-10.20701188 7.07998186 -11.26980214 7.06528748 -14 6 C-12.04414675 4.99515796 -10.08523763 3.99626195 -8.125 3 C-6.48917969 2.1646875 -6.48917969 2.1646875 -4.8203125 1.3125 C-2 0 -2 0 0 0 Z " fill="#F9D3CC" transform="translate(152,186)"/>
<path d="M0 0 C0.99 0.33 1.98 0.66 3 1 C1.35 2.65 -0.3 4.3 -2 6 C-3.32 5.34 -4.64 4.68 -6 4 C-4.03617993 2.49440461 -2.21736634 1.10868317 0 0 Z " fill="#D4E5ED" transform="translate(148,112)"/>
<path d="M0 0 C1.98 0.495 1.98 0.495 4 1 C3.01 1 2.02 1 1 1 C1.33 2.98 1.66 4.96 2 7 C3.32 6.67 4.64 6.34 6 6 C6 6.99 6 7.98 6 9 C5.34 9 4.68 9 4 9 C3.67 9.66 3.34 10.32 3 11 C2.34 9.68 1.68 8.36 1 7 C0.34 7 -0.32 7 -1 7 C-0.67 4.69 -0.34 2.38 0 0 Z " fill="#6D92A4" transform="translate(104,80)"/>
<path d="M0 0 C0.33 0.99 0.66 1.98 1 3 C1.66 3 2.32 3 3 3 C1.8141763 6.37503669 0.72426311 8.64722731 -2 11 C-2.33 9.68 -2.66 8.36 -3 7 C-2.34 7 -1.68 7 -1 7 C-0.67 4.69 -0.34 2.38 0 0 Z " fill="#FDE4E2" transform="translate(12,43)"/>
<path d="M0 0 C1.32 0 2.64 0 4 0 C4 0.99 4 1.98 4 3 C2.41913952 3.36504603 0.83516093 3.71660506 -0.75 4.0625 C-1.63171875 4.25972656 -2.5134375 4.45695313 -3.421875 4.66015625 C-5.98679028 4.99825872 -7.57091639 4.81158635 -10 4 C-6.38026598 2.68373308 -3.90432869 2 0 2 C0 1.34 0 0.68 0 0 Z " fill="#D96F5A" transform="translate(82,0)"/>
<path d="M0 0 C3.63 0 7.26 0 11 0 C10.67 0.99 10.34 1.98 10 3 C7.69 3 5.38 3 3 3 C3 2.34 3 1.68 3 1 C2.01 0.67 1.02 0.34 0 0 Z " fill="#CE4841" transform="translate(79,197)"/>
<path d="M0 0 C4.25355958 3.83857816 4.9014954 6.50747702 6 12 C5.01 11.67 4.02 11.34 3 11 C2.05078125 8.49609375 2.05078125 8.49609375 1.3125 5.4375 C1.06113281 4.42558594 0.80976562 3.41367188 0.55078125 2.37109375 C0.36902344 1.58863281 0.18726563 0.80617188 0 0 Z " fill="#D35D53" transform="translate(4,127)"/>
<path d="M0 0 C-1.32 1.32 -2.64 2.64 -4 4 C-4 3.34 -4 2.68 -4 2 C-6.97065509 2.34227572 -6.97065509 2.34227572 -10 3 C-10.33 3.66 -10.66 4.32 -11 5 C-11.66 4.34 -12.32 3.68 -13 3 C-8.37802694 0.78145293 -5.23175837 -0.38281159 0 0 Z " fill="#D4E2EC" transform="translate(139,119)"/>
<path d="M0 0 C-0.33 0.66 -0.66 1.32 -1 2 C-1.66 2 -2.32 2 -3 2 C-3.33 2.66 -3.66 3.32 -4 4 C-4 3.34 -4 2.68 -4 2 C-5.65 2.33 -7.3 2.66 -9 3 C-9 2.01 -9 1.02 -9 0 C-5.93109813 -1.53445094 -3.29905734 -0.54984289 0 0 Z " fill="#5A8898" transform="translate(131,117)"/>
<path d="M0 0 C0.99 0.33 1.98 0.66 3 1 C3.33 5.29 3.66 9.58 4 14 C1.70986347 10.5647952 1.82157027 9.014669 2 5 C1.34 5 0.68 5 0 5 C0 3.35 0 1.7 0 0 Z " fill="#D46350" transform="translate(0,111)"/>
<path d="M0 0 C0.185625 0.8353125 0.185625 0.8353125 0.375 1.6875 C0.955376 4.07700458 0.955376 4.07700458 2.125 6.5 C3.10074502 9.2878429 2.82491922 10.258015 2 13 C1.27249212 11.59308393 0.56859647 10.17393978 -0.125 8.75 C-0.51945313 7.96109375 -0.91390625 7.1721875 -1.3203125 6.359375 C-2 4 -2 4 -1.1171875 1.703125 C-0.74851563 1.14109375 -0.37984375 0.5790625 0 0 Z " fill="#FEEBE0" transform="translate(195,60)"/>
<path d="M0 0 C3.3 0.99 6.6 1.98 10 3 C10 3.66 10 4.32 10 5 C10.66 5 11.32 5 12 5 C12 5.66 12 6.32 12 7 C7.39104317 5.68315519 3.85859765 3.84801255 0 1 C0 0.67 0 0.34 0 0 Z " fill="#CF6B57" transform="translate(42,181)"/>
<path d="M0 0 C3 2 3 2 3.6875 4.625 C3.790625 5.40875 3.89375 6.1925 4 7 C3.34 6.67 2.68 6.34 2 6 C1.01 7.485 1.01 7.485 0 9 C-0.66 9 -1.32 9 -2 9 C-1.34 6.03 -0.68 3.06 0 0 Z " fill="#D75D44" transform="translate(188,55)"/>
<path d="M0 0 C2.0625 0.4375 2.0625 0.4375 4 1 C4.33 2.32 4.66 3.64 5 5 C3.35 5 1.7 5 0 5 C-0.5625 3.0625 -0.5625 3.0625 -1 1 C-0.67 0.67 -0.34 0.34 0 0 Z " fill="#EDDCED" transform="translate(161,56)"/>
<path d="M0 0 C1.65 0 3.3 0 5 0 C5 1.32 5 2.64 5 4 C2.69 4 0.38 4 -2 4 C-1.34 2.68 -0.68 1.36 0 0 Z " fill="#638790" transform="translate(91,129)"/>
<path d="M0 0 C1.90318884 2.85478326 2.4619099 4.41941308 3.125 7.6875 C3.29257813 8.49574219 3.46015625 9.30398437 3.6328125 10.13671875 C3.75398437 10.75160156 3.87515625 11.36648437 4 12 C3.01 11.67 2.02 11.34 1 11 C-0.28317892 7.15046324 -0.06643637 4.05261865 0 0 Z " fill="#FAD1C7" transform="translate(2,122)"/>
<path d="M0 0 C0.33 0 0.66 0 1 0 C1 1.65 1 3.3 1 5 C4.96 5.99 4.96 5.99 9 7 C9 7.33 9 7.66 9 8 C7.52031676 7.85950482 6.04125484 7.71245174 4.5625 7.5625 C3.73878906 7.48128906 2.91507813 7.40007813 2.06640625 7.31640625 C0 7 0 7 -1 6 C-1.125 3.5 -1.125 3.5 -1 1 C-0.67 0.67 -0.34 0.34 0 0 Z " fill="#EFE0BD" transform="translate(47,55)"/>
<path d="M0 0 C4.875 0.875 4.875 0.875 6 2 C6.14115161 4.67058851 6.04247107 7.32432238 6 10 C5.01 10 4.02 10 3 10 C3.2475 9.0925 3.495 8.185 3.75 7.25 C4.38259327 3.91162152 4.38259327 3.91162152 2.0625 1.625 C1.381875 1.08875 0.70125 0.5525 0 0 Z " fill="#C2EAC3" transform="translate(67,51)"/>
<path d="M0 0 C0.66 0.99 1.32 1.98 2 3 C1.67 3.66 1.34 4.32 1 5 C1.66 5.33 2.32 5.66 3 6 C3.99 7.485 3.99 7.485 5 9 C0.125 8.125 0.125 8.125 -1 7 C-1.125 4 -1.125 4 -1 1 C-0.67 0.67 -0.34 0.34 0 0 Z " fill="#6FB66E" transform="translate(64,53)"/>
<path d="M0 0 C0.66 0 1.32 0 2 0 C2 0.66 2 1.32 2 2 C1.34 2 0.68 2 0 2 C-0.12375 2.78375 -0.2475 3.5675 -0.375 4.375 C-1 7 -1 7 -3 9 C-3.66 9 -4.32 9 -5 9 C-3.7580393 5.56072421 -2.44259716 2.74792181 0 0 Z " fill="#F94729" transform="translate(26,37)"/>
<path d="M0 0 C3.3 0 6.6 0 10 0 C9.67 0.66 9.34 1.32 9 2 C6.93359375 2.4140625 6.93359375 2.4140625 4.4375 2.625 C3.61121094 2.69976562 2.78492187 2.77453125 1.93359375 2.8515625 C0.97646484 2.92503906 0.97646484 2.92503906 0 3 C0 2.01 0 1.02 0 0 Z " fill="#E35641" transform="translate(86,0)"/>
<path d="M0 0 C1.25541557 3.76624671 0.37061958 5.37188934 -1 9 C-2.65 9 -4.3 9 -6 9 C-4.02 6.03 -2.04 3.06 0 0 Z " fill="#F6D1CA" transform="translate(182,156)"/>
<path d="M0 0 C0.33 1.32 0.66 2.64 1 4 C1.99 3.67 2.98 3.34 4 3 C4 3.66 4 4.32 4 5 C4.66 5.33 5.32 5.66 6 6 C3 8 3 8 0 8 C0 5.36 0 2.72 0 0 Z " fill="#859DAC" transform="translate(116,119)"/>
<path d="M0 0 C2.31 0 4.62 0 7 0 C7 1.32 7 2.64 7 4 C5.68 4.33 4.36 4.66 3 5 C2.87625 4.360625 2.7525 3.72125 2.625 3.0625 C2.315625 2.0415625 2.315625 2.0415625 2 1 C1.34 0.67 0.68 0.34 0 0 Z " fill="#F8CCC7" transform="translate(32,49)"/>
<path d="M0 0 C2.31 0.66 4.62 1.32 7 2 C7 3.65 7 5.3 7 7 C6.67 6.34 6.34 5.68 6 5 C3.47266765 4.34444881 3.47266765 4.34444881 1 4 C0.67 2.68 0.34 1.36 0 0 Z " fill="#FDEAE7" transform="translate(57,191)"/>
<path d="M0 0 C0.33 0.66 0.66 1.32 1 2 C1.66 2.33 2.32 2.66 3 3 C1.3125 4.125 1.3125 4.125 -1 5 C-3.75 4.125 -3.75 4.125 -6 3 C-3 1 -3 1 0 0 Z " fill="#688F9B" transform="translate(64,113)"/>
<path d="M0 0 C0.66 0 1.32 0 2 0 C2 1.65 2 3.3 2 5 C1.34 5 0.68 5 0 5 C0 6.65 0 8.3 0 10 C-0.99 10.495 -0.99 10.495 -2 11 C-1.85957123 9.35369672 -1.71250671 7.70795821 -1.5625 6.0625 C-1.48128906 5.14597656 -1.40007812 4.22945313 -1.31640625 3.28515625 C-1 1 -1 1 0 0 Z " fill="#BF3E33" transform="translate(198,111)"/>
<path d="M0 0 C2.31 0.33 4.62 0.66 7 1 C6.34 1.66 5.68 2.32 5 3 C4.35232207 5.57061311 4.35232207 5.57061311 4 8 C3.34 8 2.68 8 2 8 C1.34 5.36 0.68 2.72 0 0 Z " fill="#FAD8D4" transform="translate(42,53)"/>
<path d="M0 0 C2.475 0.99 2.475 0.99 5 2 C5 2.99 5 3.98 5 5 C3.35 5 1.7 5 0 5 C0 3.35 0 1.7 0 0 Z " fill="#EC5141" transform="translate(160,34)"/>
<path d="M0 0 C3.61941735 1.50239966 6.7321794 2.82145293 10 5 C9.67 5.66 9.34 6.32 9 7 C5.7 5.35 2.4 3.7 -1 2 C-0.67 1.34 -0.34 0.68 0 0 Z " fill="#CD6C5B" transform="translate(145,11)"/>
<path d="M0 0 C1.98 0.495 1.98 0.495 4 1 C4 2.65 4 4.3 4 6 C1.525 5.01 1.525 5.01 -1 4 C-0.67 2.68 -0.34 1.36 0 0 Z " fill="#E65032" transform="translate(61,185)"/>
<path d="M0 0 C0.66 0.66 1.32 1.32 2 2 C-1.3 3.32 -4.6 4.64 -8 6 C-8 5.01 -8 4.02 -8 3 C-5.36 2.01 -2.72 1.02 0 0 Z " fill="#E0ECFB" transform="translate(136,108)"/>
<path d="M0 0 C1.32 0.33 2.64 0.66 4 1 C4 2.32 4 3.64 4 5 C2.68 5.33 1.36 5.66 0 6 C0 4.02 0 2.04 0 0 Z " fill="#E24F4A" transform="translate(37,54)"/>
<path d="M0 0 C5.75 1.625 5.75 1.625 8 5 C7.34 5.66 6.68 6.32 6 7 C4.02 4.69 2.04 2.38 0 0 Z " fill="#FCE8D9" transform="translate(167,25)"/>
<path d="M0 0 C0.99 0 1.98 0 3 0 C3.33 0.99 3.66 1.98 4 3 C4.99 3.33 5.98 3.66 7 4 C7.6875 6.0625 7.6875 6.0625 8 8 C7.34 7.67 6.68 7.34 6 7 C6 6.34 6 5.68 6 5 C4.68 5.33 3.36 5.66 2 6 C1.34 4.02 0.68 2.04 0 0 Z " fill="#EA5747" transform="translate(153,17)"/>
<path d="M0 0 C0 0.99 0 1.98 0 3 C-1.65 3.66 -3.3 4.32 -5 5 C-5.33 4.34 -5.66 3.68 -6 3 C-5.67 2.34 -5.34 1.68 -5 1 C-2.4375 0.375 -2.4375 0.375 0 0 Z " fill="#C03837" transform="translate(153,182)"/>
<path d="M0 0 C0.625 1.8125 0.625 1.8125 1 4 C0.01 5.485 0.01 5.485 -1 7 C-4.625 7.1875 -4.625 7.1875 -8 7 C-8 6.67 -8 6.34 -8 6 C-7.05125 5.7525 -6.1025 5.505 -5.125 5.25 C-1.91306809 4.3142923 -1.91306809 4.3142923 -0.625 1.875 C-0.41875 1.25625 -0.2125 0.6375 0 0 Z " fill="#FCC6C5" transform="translate(169,144)"/>
<path d="M0 0 C1.61949011 2.57213134 2.04408751 3.67669159 1.625 6.75 C1.41875 7.4925 1.2125 8.235 1 9 C0.01 8.67 -0.98 8.34 -2 8 C-1.34 5.36 -0.68 2.72 0 0 Z " fill="#CBDFEA" transform="translate(104,105)"/>
<path d="M0 0 C0.66 0.33 1.32 0.66 2 1 C1.01 3.64 0.02 6.28 -1 9 C-1.33 8.34 -1.66 7.68 -2 7 C-2.99 6.67 -3.98 6.34 -5 6 C-4.01 6 -3.02 6 -2 6 C-1.7834375 5.071875 -1.7834375 5.071875 -1.5625 4.125 C-1 2 -1 2 0 0 Z " fill="#E9F7F9" transform="translate(99,93)"/>
<path d="M0 0 C0.66 0 1.32 0 2 0 C2 0.99 2 1.98 2 3 C2.66 3 3.32 3 4 3 C4 4.65 4 6.3 4 8 C3.67 7.34 3.34 6.68 3 6 C2.01 5.67 1.02 5.34 0 5 C0 3.35 0 1.7 0 0 Z " fill="#C5443F" transform="translate(196,80)"/>
<path d="M0 0 C3.4375 0.8125 3.4375 0.8125 7 2 C7.33 2.99 7.66 3.98 8 5 C8.66 5 9.32 5 10 5 C9.67 5.66 9.34 6.32 9 7 C7.4972763 6.02501855 5.99788037 5.04490611 4.5 4.0625 C3.6646875 3.51722656 2.829375 2.97195312 1.96875 2.41015625 C1.3190625 1.94480469 0.669375 1.47945312 0 1 C0 0.67 0 0.34 0 0 Z " fill="#FBE0CE" transform="translate(152,14)"/>
<path d="M0 0 C0.99 0.33 1.98 0.66 3 1 C2.67 1.99 2.34 2.98 2 4 C0.35 4.33 -1.3 4.66 -3 5 C-2.625 3.0625 -2.625 3.0625 -2 1 C-1.34 0.67 -0.68 0.34 0 0 Z " fill="#FEECEB" transform="translate(46,11)"/>
<path d="M0 0 C2.625 0.375 2.625 0.375 5 1 C5.33 2.32 5.66 3.64 6 5 C3.36 4.01 0.72 3.02 -2 2 C-1.34 1.34 -0.68 0.68 0 0 Z " fill="#FADFD7" transform="translate(146,9)"/>
<path d="M0 0 C0 2.31 0 4.62 0 7 C-1.37562854 5.71034824 -2.70766393 4.37310707 -4 3 C-4 2.34 -4 1.68 -4 1 C-2 0 -2 0 0 0 Z " fill="#E55635" transform="translate(18,146)"/>
<path d="M0 0 C0.66 0.33 1.32 0.66 2 1 C2 2.98 2 4.96 2 7 C1.01 7.33 0.02 7.66 -1 8 C-0.67 5.36 -0.34 2.72 0 0 Z " fill="#6C93A1" transform="translate(99,97)"/>
<path d="M0 0 C0.33 0.99 0.66 1.98 1 3 C4.51190809 4.22969878 4.51190809 4.22969878 8 5 C8 5.33 8 5.66 8 6 C5.1875 6.25 5.1875 6.25 2 6 C0.125 4 0.125 4 -1 2 C-0.67 1.34 -0.34 0.68 0 0 Z " fill="#D0E3EC" transform="translate(115,93)"/>
<path d="M0 0 C0.99 0 1.98 0 3 0 C3.33 0.66 3.66 1.32 4 2 C3.67 2.99 3.34 3.98 3 5 C2.34 5 1.68 5 1 5 C0.67 5.66 0.34 6.32 0 7 C-1.04449911 3.86650268 -0.93423645 3.01031744 0 0 Z " fill="#6E939F" transform="translate(101,90)"/>
<path d="M0 0 C0.99 1.32 1.98 2.64 3 4 C1.68 5.65 0.36 7.3 -1 9 C-1.09765625 2.84765625 -1.09765625 2.84765625 -1 1 C-0.67 0.67 -0.34 0.34 0 0 Z " fill="#DA5B45" transform="translate(5,69)"/>
<path d="M0 0 C1.65 0 3.3 0 5 0 C5.33 0.99 5.66 1.98 6 3 C3.69 3 1.38 3 -1 3 C-0.67 2.01 -0.34 1.02 0 0 Z " fill="#E5DEE6" transform="translate(58,62)"/>
<path d="M0 0 C0.66 0 1.32 0 2 0 C2 1.98 2 3.96 2 6 C1.34 6 0.68 6 0 6 C-0.33 6.66 -0.66 7.32 -1 8 C-1.125 2.25 -1.125 2.25 0 0 Z " fill="#D7EEDC" transform="translate(60,54)"/>
<path d="M0 0 C1.65 0 3.3 0 5 0 C4.67 1.65 4.34 3.3 4 5 C3.34 5 2.68 5 2 5 C1.34 3.35 0.68 1.7 0 0 Z " fill="#DAE5F7" transform="translate(163,54)"/>
<path d="M0 0 C0.99 0 1.98 0 3 0 C3 0.99 3 1.98 3 3 C0.5 4.6875 0.5 4.6875 -2 6 C-1.125 1.125 -1.125 1.125 0 0 Z " fill="#F1FEF6" transform="translate(26,24)"/>
<path d="M0 0 C1.48199902 0.44909061 2.96055236 0.90956564 4.4375 1.375 C5.26121094 1.63023438 6.08492187 1.88546875 6.93359375 2.1484375 C9 3 9 3 10 5 C3.375 4.25 3.375 4.25 0 2 C0 1.34 0 0.68 0 0 Z " fill="#CE715F" transform="translate(134,6)"/>
<path d="M0 0 C2.31 0 4.62 0 7 0 C7.33 1.32 7.66 2.64 8 4 C5.36 3.01 2.72 2.02 0 1 C0 0.67 0 0.34 0 0 Z " fill="#FAE8D7" transform="translate(136,6)"/>
<path d="M0 0 C0.33 0.99 0.66 1.98 1 3 C1.66 3.33 2.32 3.66 3 4 C-0.75 5.125 -0.75 5.125 -3 4 C-2.67 3.01 -2.34 2.02 -2 1 C-1.34 0.67 -0.68 0.34 0 0 Z " fill="#DD5840" transform="translate(36,170)"/>
<path d="M0 0 C2.375 0.6875 2.375 0.6875 5 2 C6.3125 4.625 6.3125 4.625 7 7 C3.17053157 5.54744301 1.87949705 3.57104439 0 0 Z " fill="#DA594B" transform="translate(21,160)"/>
<path d="M0 0 C0.33 0.66 0.66 1.32 1 2 C2.65 1.67 4.3 1.34 6 1 C3.61426621 2.89213369 1.92824652 4.02391783 -1 5 C-1.33 3.68 -1.66 2.36 -2 1 C-1.34 0.67 -0.68 0.34 0 0 Z " fill="#DEEFF3" transform="translate(55,97)"/>
<path d="M0 0 C2.64 0 5.28 0 8 0 C7.01 1.485 7.01 1.485 6 3 C4.68 3 3.36 3 2 3 C2 2.34 2 1.68 2 1 C1.34 0.67 0.68 0.34 0 0 Z " fill="#DFE5D6" transform="translate(43,51)"/>
<path d="M0 0 C2 3.75 2 3.75 2 6 C2.66 6.33 3.32 6.66 4 7 C3.01 7 2.02 7 1 7 C-2 3.66666667 -2 3.66666667 -2 1 C-1.34 0.67 -0.68 0.34 0 0 Z " fill="#FCDACD" transform="translate(179,34)"/>
<path d="M0 0 C0.99 0.33 1.98 0.66 3 1 C0.03 3.475 0.03 3.475 -3 6 C-2.625 3.5625 -2.625 3.5625 -2 1 C-1.34 0.67 -0.68 0.34 0 0 Z " fill="#FBE7D5" transform="translate(29,26)"/>
<path d="M0 0 C0.66 0.33 1.32 0.66 2 1 C0.625 2.5 0.625 2.5 -1 4 C-1.66 4 -2.32 4 -3 4 C-3.33 4.99 -3.66 5.98 -4 7 C-4.33 6.34 -4.66 5.68 -5 5 C-4.25 2.9375 -4.25 2.9375 -3 1 C-2.01 0.67 -1.02 0.34 0 0 Z " fill="#E35841" transform="translate(44,18)"/>
<path d="M0 0 C2.97 0.495 2.97 0.495 6 1 C4.68 1.33 3.36 1.66 2 2 C2 2.66 2 3.32 2 4 C0.35 3.67 -1.3 3.34 -3 3 C-2.01 2.67 -1.02 2.34 0 2 C0 1.34 0 0.68 0 0 Z " fill="#EE4B26" transform="translate(78,4)"/>
</svg>
