<?xml version="1.0" encoding="UTF-8"?>
<svg version="1.1" xmlns="http://www.w3.org/2000/svg" width="920" height="518">
<path d="M0 0 C303.6 0 607.2 0 920 0 C920 170.94 920 341.88 920 518 C616.4 518 312.8 518 0 518 C0 347.06 0 176.12 0 0 Z " fill="#000000" transform="translate(0,0)"/>
<path d="M0 0 C0.25007812 0.8765625 0.50015625 1.753125 0.7578125 2.65625 C1.76976542 6.19897447 2.78713619 9.74012979 3.8046875 13.28125 C9.0163501 31.436632 14.0565358 49.52311138 18 68 C18.28101563 68.85078125 18.56203125 69.7015625 18.8515625 70.578125 C19.0835608 74.36336039 17.11857325 77.02090595 15.1875 80.125 C14.81818359 80.74503906 14.44886719 81.36507812 14.06835938 82.00390625 C12.44396274 84.71609453 10.75368266 87.369476 9 90 C9.60807944 94.9808408 13.18426038 99.06979747 16.02539062 103.07226562 C17.7792287 105.77921633 19.04453599 107.82991809 18.91943359 111.11669922 C18.40879733 113.46646057 17.73309698 115.7101514 17 118 C16.5592062 119.72180407 16.1272447 121.44588806 15.703125 123.171875 C15.22097063 125.03182707 14.73650341 126.89118076 14.25 128.75 C13.9912207 129.74427002 13.73244141 130.73854004 13.46582031 131.76293945 C11.67011233 138.60515005 9.74006594 145.39967817 7.75 152.1875 C5.87526692 158.59081678 4.35631631 164.84797784 3.43359375 171.46875 C2.74472928 175.49022906 1.40237675 179.17533612 0 183 C-6.06382405 182.45145348 -11.60726557 181.47162696 -17.4375 179.75 C-19.02342504 179.29683138 -20.60936289 178.84370762 -22.1953125 178.390625 C-23.79688845 177.92712982 -25.39845119 177.46358896 -27 177 C-29.93521773 176.15844302 -32.87271123 175.32544503 -35.8125 174.5 C-36.54001465 174.29552246 -37.2675293 174.09104492 -38.01708984 173.88037109 C-44.85126776 171.988172 -51.74198622 170.35381242 -58.6574707 168.78710938 C-73.61300461 165.3440248 -73.61300461 165.3440248 -77.26953125 161.80078125 C-77.77871094 160.97964844 -78.28789062 160.15851563 -78.8125 159.3125 C-79.33457031 158.50425781 -79.85664063 157.69601562 -80.39453125 156.86328125 C-81.69838991 154.53790801 -82.91424475 152.20680573 -84.1003418 149.82104492 C-84.45710495 149.10438156 -84.8138681 148.3877182 -85.18144226 147.64933777 C-85.58662834 146.83291557 -85.58662834 146.83291557 -86 146 C-86.62753174 146.06200592 -87.25506348 146.12401184 -87.90161133 146.18789673 C-97.43195733 146.94516384 -107.23706881 147.6134407 -115.2265625 141.65527344 C-120.22695042 137.27483885 -124.61340176 132.35708562 -129 127.375 C-130.551569 125.69911073 -132.1088464 124.02848778 -133.671875 122.36328125 C-136.54108788 119.3012527 -139.36722501 116.2080879 -142.16796875 113.08349609 C-145.84469873 109.05395681 -149.83903137 105.51694561 -154 102 C-155.70787581 100.45979783 -157.39964214 98.90119954 -159.0625 97.3125 C-160.22458984 96.22388672 -160.22458984 96.22388672 -161.41015625 95.11328125 C-163 93 -163 93 -162.9296875 91.21875 C-161.56567932 87.96346998 -159.19951591 85.81200543 -156.71484375 83.38671875 C-156.18033096 82.85407913 -155.64581818 82.32143951 -155.09510803 81.7726593 C-153.96118377 80.64545361 -152.8236693 79.52184972 -151.68286133 78.40161133 C-149.96125613 76.71083078 -148.25023613 75.00993062 -146.54101562 73.30664062 C-142.04514212 68.84421428 -137.57295279 64.40865642 -132.72265625 60.328125 C-129.78068188 57.82873158 -127.36422617 55.13678003 -124.90625 52.16015625 C-112.70646513 37.7762454 -112.70646513 37.7762454 -103.42578125 36.765625 C-97.56142231 36.6137677 -91.79077487 37.08183246 -86 38 C-85.72929687 37.1440625 -85.45859375 36.288125 -85.1796875 35.40625 C-80.29526443 21.30288274 -80.29526443 21.30288274 -73.89257812 17.87011719 C-68.10855906 15.5816988 -62.07758861 14.2555277 -56 13 C-54.7521875 12.72285156 -53.504375 12.44570312 -52.21875 12.16015625 C-49.99577113 11.67972273 -47.769099 11.21606081 -45.5390625 10.76953125 C-41.3955596 9.86857091 -37.33105064 8.77205894 -33.25 7.625 C-32.50057129 7.41456055 -31.75114258 7.20412109 -30.97900391 6.98730469 C-27.00195164 5.86359463 -23.03126333 4.71900648 -19.0625 3.56640625 C-18.25651367 3.33550293 -17.45052734 3.10459961 -16.62011719 2.86669922 C-15.08231397 2.42601437 -13.54636019 1.97880369 -12.01269531 1.52392578 C-7.89857622 0.34913936 -4.27726687 -0.23538418 0 0 Z " fill="#F8F8F8" transform="translate(403,168)"/>
<path d="M0 0 C10.56 0 21.12 0 32 0 C32 170.94 32 341.88 32 518 C21.44 518 10.88 518 0 518 C0 347.06 0 176.12 0 0 Z " fill="#FFFFFF" transform="translate(0,0)"/>
<path d="M0 0 C6.27 0 12.54 0 19 0 C22.37272113 7.86968265 22.37272113 7.86968265 23.5 11.12109375 C23.7475 11.82943359 23.995 12.53777344 24.25 13.26757812 C24.4975 13.98365234 24.745 14.69972656 25 15.4375 C28.35911909 25.10371509 32.02268499 34.5676324 36 44 C36.24645264 43.20005615 36.49290527 42.4001123 36.74682617 41.57592773 C45.44229356 13.37907376 45.44229356 13.37907376 50 0 C56.27 0 62.54 0 69 0 C67.71600817 7.06831145 65.95219674 13.70899916 63.625 20.5 C63.33367188 21.37269531 63.04234375 22.24539062 62.7421875 23.14453125 C60.95785848 28.42708428 58.99004912 33.6063925 56.89257812 38.77197266 C54.29400808 45.25844702 52.24685865 51.9266849 50.5 58.6875 C49.37522614 62.95430518 47.85073111 66.77148713 45.9609375 70.75 C44.932765 73.1574283 44.28126438 75.53009156 43.625 78.0625 C41.57493491 85.22658615 37.20609036 90.86260642 31 95 C26.19528346 97.57724259 21.48916952 97.2277915 16.1875 97.125 C14.86202148 97.11146484 14.86202148 97.11146484 13.50976562 97.09765625 C11.33972641 97.07419637 9.16982753 97.03832865 7 97 C7 92.05 7 87.1 7 82 C10.28776042 81.57682292 13.57552083 81.15364583 16.86328125 80.73046875 C20.02888504 79.99327335 21.1113885 79.5589719 23 77 C25.2212548 72.55749039 24.25204341 67.29135349 22.86328125 62.703125 C22.35992555 61.21409317 21.84249398 59.72975982 21.3125 58.25 C21.03849365 57.45706543 20.7644873 56.66413086 20.48217773 55.84716797 C18.63539911 50.57632142 16.56178268 45.43423977 14.34375 40.30859375 C12.24601215 35.14352409 10.48254581 29.86592284 8.671875 24.59472656 C6.35322242 17.89046465 3.78736801 11.32363786 1.06640625 4.7734375 C0 2 0 2 0 0 Z " fill="#F8F8F8" transform="translate(675,224)"/>
<path d="M0 0 C6.44957639 4.36149515 10.78905614 9.50908534 12.9375 17 C13.17800903 19.84750366 13.17800903 19.84750366 13.16455078 22.82177734 C13.16439972 23.94248627 13.16424866 25.06319519 13.16409302 26.21786499 C13.15377045 27.41182892 13.14344788 28.60579285 13.1328125 29.8359375 C13.1299826 31.07042633 13.12715271 32.30491516 13.12423706 33.57681274 C13.11306522 37.50964149 13.08796564 41.44224037 13.0625 45.375 C13.05133825 48.04556959 13.04334119 50.71613701 13.03515625 53.38671875 C13.01313562 59.92456739 12.97862592 66.46224475 12.9375 73 C6.9975 73 1.0575 73 -5.0625 73 C-5.06660889 71.48124268 -5.07071777 69.96248535 -5.07495117 68.39770508 C-5.09673191 62.75982786 -5.15101199 57.12264958 -5.21508789 51.48510742 C-5.23827689 49.04572247 -5.25266568 46.60623726 -5.25805664 44.16674805 C-5.26733906 40.65870625 -5.30831782 37.15224328 -5.35546875 33.64453125 C-5.3515361 32.55477493 -5.34760345 31.46501862 -5.34355164 30.34223938 C-5.43410948 24.14481996 -5.43410948 24.14481996 -8.41918945 18.8347168 C-13.33957874 15.419484 -18.25288428 15.35750356 -24.0625 16 C-29.12049698 18.39105312 -31.06121521 20.84915811 -33.0625 26 C-33.51981496 29.62120511 -33.55084795 33.22034897 -33.57421875 36.8671875 C-33.59216995 37.90191193 -33.61012115 38.93663635 -33.62861633 40.00271606 C-33.68260969 43.29343647 -33.71658042 46.58401271 -33.75 49.875 C-33.78318269 52.11199918 -33.81767323 54.34897936 -33.85351562 56.5859375 C-33.93833017 62.05718749 -34.00519411 67.52839553 -34.0625 73 C-40.0025 73 -45.9425 73 -52.0625 73 C-52.0625 48.91 -52.0625 24.82 -52.0625 0 C-46.1225 0 -40.1825 0 -34.0625 0 C-33.7325 2.64 -33.4025 5.28 -33.0625 8 C-32.381875 7.0925 -31.70125 6.185 -31 5.25 C-23.48841898 -3.45848129 -10.36716626 -5.2638796 0 0 Z " fill="#F8F8F8" transform="translate(584.0625,224)"/>
<path d="M0 0 C5.94 0 11.88 0 18 0 C18.01401855 2.22484131 18.01401855 2.22484131 18.02832031 4.49462891 C18.0682495 10.00762758 18.1340176 15.52006996 18.20751953 21.03271484 C18.23571195 23.41675663 18.25693503 25.80089158 18.27099609 28.18505859 C18.29244869 31.61604452 18.33911364 35.04591224 18.390625 38.4765625 C18.39185364 39.53928375 18.39308228 40.602005 18.39434814 41.69692993 C18.51367877 47.75213656 18.90540881 51.41893194 23 56 C26.20624887 58.13749925 27.22458103 58.29574999 30.9375 58.3125 C31.79214844 58.32925781 32.64679688 58.34601563 33.52734375 58.36328125 C36.45490278 57.93316594 37.74275754 56.84772115 40 55 C40.66 55 41.32 55 42 55 C44.71280225 48.26712172 45.46363471 42.28063539 45.51171875 35.05859375 C45.52966995 34.05031021 45.54762115 33.04202667 45.56611633 32.00318909 C45.61986129 28.81466733 45.65399973 25.62629214 45.6875 22.4375 C45.72070469 20.26234955 45.75519723 18.08721836 45.79101562 15.91210938 C45.87556703 10.60817931 45.94254823 5.30429001 46 0 C51.94 0 57.88 0 64 0 C64 24.09 64 48.18 64 73 C58.39 73 52.78 73 47 73 C47 70.36 47 67.72 47 65 C46.34 65 45.68 65 45 65 C44.62488281 65.90685547 44.62488281 65.90685547 44.2421875 66.83203125 C42.81214229 69.32786487 41.57480307 70.22224043 39.125 71.6875 C38.44695312 72.10386719 37.76890625 72.52023437 37.0703125 72.94921875 C30.84118559 76.11079449 22.45990896 76.06225502 15.76953125 74.46875 C8.12195936 71.36245149 4.33177833 66.2786542 1 59 C0.00201762 55.78077262 -0.12123732 52.85947143 -0.11352539 49.49707031 C-0.11344986 48.39623108 -0.11337433 47.29539185 -0.11329651 46.16119385 C-0.10813522 44.97878113 -0.10297394 43.79636841 -0.09765625 42.578125 C-0.0962413 41.36300232 -0.09482635 40.14787964 -0.09336853 38.89593506 C-0.08776988 35.01393169 -0.0752176 31.13198594 -0.0625 27.25 C-0.05748483 24.61849042 -0.05292195 21.98697993 -0.04882812 19.35546875 C-0.03780088 12.90362362 -0.02053714 6.45182158 0 0 Z " fill="#F8F8F8" transform="translate(459,224)"/>
<path d="M0 0 C21.45 0 42.9 0 65 0 C68.96 6.93 72.92 13.86 77 21 C80.04535157 25.97424891 80.04535157 25.97424891 83.12109375 30.9296875 C85.94985828 35.55215926 88.59208282 40.27510136 91.23828125 45.00390625 C92.88080074 47.94734193 92.88080074 47.94734193 94.73046875 50.21484375 C96 52 96 52 96 55 C91.28713527 54.26690816 86.65039655 53.28902888 82.00390625 52.22265625 C81.25213608 52.05124619 80.50036591 51.87983612 79.72581482 51.70323181 C78.14310101 51.34184493 76.56058964 50.9795704 74.97827148 50.61645508 C72.57401949 50.06514151 70.16890072 49.51773718 67.76367188 48.97070312 C66.21869613 48.61742302 64.6737725 48.26391488 63.12890625 47.91015625 C62.4182753 47.74862564 61.70764435 47.58709503 60.97547913 47.42066956 C56.60590147 46.41440858 52.29636373 45.29106335 48 44 C47.30496368 43.83976349 46.60992737 43.67952698 45.89382935 43.51443481 C38.75837756 41.63031831 34.63901063 37.44983307 29.58984375 32.24609375 C28.73693253 31.38943619 27.8840213 30.53277863 27.00526428 29.65016174 C25.21591251 27.84742296 23.43374153 26.03753119 21.65844727 24.22094727 C18.92915855 21.42896695 16.17874167 18.65925538 13.42382812 15.89257812 C11.68623925 14.13666336 9.94986678 12.37954388 8.21484375 10.62109375 C7.38999985 9.78775009 6.56515594 8.95440643 5.71531677 8.09580994 C4.58767662 6.93934715 4.58767662 6.93934715 3.43725586 5.75952148 C2.77157089 5.08018051 2.10588593 4.40083954 1.42002869 3.70091248 C0 2 0 2 0 0 Z " fill="#030303" transform="translate(278,268)"/>
<path d="M0 0 C0.66 0 1.32 0 2 0 C7.03369847 15.4853472 7.03369847 15.4853472 8.0625 21.375 C8.64693375 24.67950856 9.53961421 27.48440997 10.875 30.5625 C15.09557847 40.66630907 18.56177444 51.36891689 15 62 C14.52661427 64.30946566 14.06965168 66.62233034 13.625 68.9375 C12.74253317 73.09706727 11.75852394 76.91497048 10.0625 80.8125 C7.78226816 86.05441227 6.60305277 91.45871953 5.39477539 97.0246582 C4.55553614 100.84991509 3.59101837 104.41668872 2 108 C1.34 108 0.68 108 0 108 C-1.22998047 106.29785156 -1.22998047 106.29785156 -2.6171875 103.890625 C-3.13595459 103.00020508 -3.65472168 102.10978516 -4.18920898 101.19238281 C-4.74552002 100.22139648 -5.30183105 99.25041016 -5.875 98.25 C-7.05009925 96.22877001 -8.2258961 94.20794545 -9.40234375 92.1875 C-10.00030762 91.15625 -10.59827148 90.125 -11.21435547 89.0625 C-13.91360488 84.43310642 -16.67252132 79.84034148 -19.4375 75.25 C-22.23644809 70.59434293 -22.23644809 70.59434293 -23.58544922 68.32617188 C-24.59963698 66.65838088 -25.64701466 65.01059985 -26.71533203 63.37695312 C-27.27462402 62.50490234 -27.83391602 61.63285156 -28.41015625 60.734375 C-29.18758179 59.55439941 -29.18758179 59.55439941 -29.98071289 58.35058594 C-31.27930566 55.35589105 -31.01902565 54.07514162 -30 51 C-28.74755859 48.44238281 -28.74755859 48.44238281 -27.1484375 45.703125 C-26.55119873 44.67300293 -25.95395996 43.64288086 -25.33862305 42.58154297 C-24.36662964 40.9324292 -24.36662964 40.9324292 -23.375 39.25 C-22.71218018 38.11578613 -22.04936035 36.98157227 -21.36645508 35.81298828 C-19.61193418 32.81418223 -17.84688741 29.82169752 -16.07952881 26.83044434 C-15.00078775 25.0013357 -13.92668079 23.16958468 -12.85400391 21.33691406 C-10.8087565 17.8434878 -8.74960826 14.35850266 -6.6875 10.875 C-6.04796387 9.78477539 -5.40842773 8.69455078 -4.74951172 7.57128906 C-4.15541504 6.57581055 -3.56131836 5.58033203 -2.94921875 4.5546875 C-2.16550903 3.23186768 -2.16550903 3.23186768 -1.3659668 1.88232422 C-0.91519775 1.26115723 -0.46442871 0.63999023 0 0 Z " fill="#050505" transform="translate(390,205)"/>
<path d="M0 0 C-3.57271812 7.37882989 -7.865444 14.44501561 -12.0703125 21.48046875 C-12.39454193 22.02428696 -12.71877136 22.56810516 -13.05282593 23.12840271 C-13.77918766 24.32650593 -14.52069059 25.51563882 -15.28109741 26.69242859 C-17.71650073 30.53417473 -19.54448648 34.2828389 -21.14257812 38.54541016 C-23.77164821 44.90152299 -26.52949326 50.64030908 -32 55 C-41.82116298 58.40882883 -52.81453803 57.18025702 -63.02416992 56.51062012 C-66.85653015 56.28349155 -70.692116 56.1846762 -74.52929688 56.07421875 C-82.02830947 55.83981329 -89.51141067 55.46577147 -97 55 C-90.63076895 47.46955499 -83.9255449 40.30367707 -77.06469727 33.22021484 C-75.57255049 31.6664412 -74.09406566 30.09942204 -72.63012695 28.51904297 C-62.70704766 17.82577086 -54.90746293 11.81659077 -40.40615845 9.42834473 C-36.32549847 8.70190496 -32.34539429 7.59845019 -28.33984375 6.54296875 C-26.77078408 6.14669805 -25.20112343 5.75279906 -23.63085938 5.36132812 C-20.4347474 4.56238367 -17.23956281 3.75988374 -14.04492188 2.95507812 C-12.49745301 2.56747998 -10.9499292 2.18010112 -9.40234375 1.79296875 C-8.6848143 1.61179001 -7.96728485 1.43061127 -7.22801208 1.24394226 C-2.22891364 0 -2.22891364 0 0 0 Z " fill="#030303" transform="translate(375,195)"/>
<path d="M0 0 C5.94 0 11.88 0 18 0 C18 7.59 18 15.18 18 23 C21.96 23 25.92 23 30 23 C30.09765625 32.27734375 30.09765625 32.27734375 30 35 C29 36 29 36 26.49609375 36.09765625 C25.48675781 36.08605469 24.47742188 36.07445312 23.4375 36.0625 C22.42558594 36.05347656 21.41367187 36.04445312 20.37109375 36.03515625 C19.19740234 36.01775391 19.19740234 36.01775391 18 36 C18.11817586 41.92665216 18.24241928 47.8531341 18.37231445 53.77954102 C18.41565529 55.79610729 18.45733098 57.81271007 18.49731445 59.8293457 C18.55503747 62.72618617 18.61872622 65.62284306 18.68359375 68.51953125 C18.70030624 69.42274612 18.71701874 70.325961 18.73423767 71.25654602 C18.75418289 72.09719101 18.77412811 72.937836 18.79467773 73.80395508 C18.81799416 74.91315056 18.81799416 74.91315056 18.84178162 76.04475403 C18.93912225 78.2151671 18.93912225 78.2151671 20 81 C23.3 81 26.6 81 30 81 C30 85.95 30 90.9 30 96 C27.3118751 96.08164159 24.626277 96.14079668 21.9375 96.1875 C21.18533203 96.21263672 20.43316406 96.23777344 19.65820312 96.26367188 C13.71224516 96.34089211 8.96379531 95.49198036 4.2578125 91.53515625 C0.74558113 86.96925547 -0.1287381 83.89057466 -0.11352539 78.23144531 C-0.11344986 77.29077209 -0.11337433 76.35009888 -0.11329651 75.38092041 C-0.10813522 74.37349792 -0.10297394 73.36607544 -0.09765625 72.328125 C-0.0962413 71.29057068 -0.09482635 70.25301636 -0.09336853 69.184021 C-0.08777447 65.87265124 -0.07522303 62.56134929 -0.0625 59.25 C-0.05748423 57.00390723 -0.05292146 54.75781339 -0.04882812 52.51171875 C-0.03780698 47.00778641 -0.02054639 41.5039047 0 36 C-3.3 36 -6.6 36 -10 36 C-10 31.71 -10 27.42 -10 23 C-6.7 23 -3.4 23 0 23 C0 15.41 0 7.82 0 0 Z " fill="#F7F7F7" transform="translate(640,201)"/>
<path d="M0 0 C5.94 0 11.88 0 18 0 C18 24.09 18 48.18 18 73 C12.06 73 6.12 73 0 73 C0 48.91 0 24.82 0 0 Z " fill="#F6F6F6" transform="translate(607,224)"/>
<path d="M0 0 C6.27 0 12.54 0 19 0 C19.09765625 10.83984375 19.09765625 10.83984375 19 14 C18 15 18 15 16.23413086 15.11352539 C15.48526611 15.10828857 14.73640137 15.10305176 13.96484375 15.09765625 C13.15595703 15.09443359 12.34707031 15.09121094 11.51367188 15.08789062 C10.66353516 15.07951172 9.81339844 15.07113281 8.9375 15.0625 C8.08349609 15.05798828 7.22949219 15.05347656 6.34960938 15.04882812 C4.23304337 15.03700373 2.11651315 15.01906769 0 15 C0 10.05 0 5.1 0 0 Z " fill="#E6E6E6" transform="translate(606,201)"/>
<path d="M0 0 C21.45 0 42.9 0 65 0 C65 0.66 65 1.32 65 2 C43.88 2.33 22.76 2.66 1 3 C0.67 2.01 0.34 1.02 0 0 Z " fill="#474747" transform="translate(278,268)"/>
<path d="M0 0 C3.96 0 7.92 0 12 0 C12.09765625 9.27734375 12.09765625 9.27734375 12 12 C11 13 11 13 8.49609375 13.09765625 C6.98208984 13.08025391 6.98208984 13.08025391 5.4375 13.0625 C4.42558594 13.05347656 3.41367187 13.04445312 2.37109375 13.03515625 C1.58863281 13.02355469 0.80617188 13.01195312 0 13 C0.33 12.34 0.66 11.68 1 11 C3.97 11 6.94 11 10 11 C10 7.7 10 4.4 10 1 C6.7 1 3.4 1 0 1 C0 0.67 0 0.34 0 0 Z " fill="#C2C2C2" transform="translate(658,224)"/>
<path d="M0 0 C0.33 0 0.66 0 1 0 C1.33 2.64 1.66 5.28 2 8 C2.721875 7.05125 3.44375 6.1025 4.1875 5.125 C6.49809898 2.32587438 8.44811452 1.01482442 12 0 C11.06409496 1.1055189 10.12620142 2.20935453 9.1875 3.3125 C8.40439453 4.23482422 8.40439453 4.23482422 7.60546875 5.17578125 C7.07566406 5.77777344 6.54585937 6.37976563 6 7 C5.50113281 7.57105469 5.00226562 8.14210937 4.48828125 8.73046875 C3 10 3 10 0 10 C0 6.7 0 3.4 0 0 Z " fill="#C5C5C5" transform="translate(549,224)"/>
<path d="M0 0 C0.66 0.33 1.32 0.66 2 1 C-0.31 3.31 -2.62 5.62 -5 8 C-5.33 7.34 -5.66 6.68 -6 6 C-2.25 1.125 -2.25 1.125 0 0 Z " fill="#2A2A2A" transform="translate(558,240)"/>
</svg>
